<mxfile host="Electron" agent="Mozilla/5.0 (Windows NT 10.0; Win64; x64) AppleWebKit/537.36 (KHTML, like Gecko) draw.io/25.0.1 Chrome/128.0.6613.186 Electron/32.2.6 Safari/537.36" version="25.0.1">
  <diagram name="第 1 页" id="cyTL4NDqxQjuVcuA-4Mo">
    <mxGraphModel dx="1375" dy="1478" grid="0" gridSize="10" guides="1" tooltips="1" connect="1" arrows="1" fold="1" page="1" pageScale="1" pageWidth="1169" pageHeight="827" math="0" shadow="0">
      <root>
        <mxCell id="0" />
        <mxCell id="1" parent="0" />
        <mxCell id="u3GOakAXPToixl_BFqBM-14" value="" style="rounded=1;whiteSpace=wrap;html=1;fillColor=none;dashed=1;" vertex="1" parent="1">
          <mxGeometry x="192" y="286" width="591" height="256" as="geometry" />
        </mxCell>
        <mxCell id="u3GOakAXPToixl_BFqBM-1" value="" style="shape=image;verticalLabelPosition=bottom;labelBackgroundColor=default;verticalAlign=top;aspect=fixed;imageAspect=0;image=data:image/png,iVBORw0KGgoAAAANSUhEUgAABAAAAAQACAYAAAB/HSuDAAAABGdBTUEAALGPC/xhBQAAACBjSFJNAAB6JgAAgIQAAPoAAACA6AAAdTAAAOpgAAA6mAAAF3CculE8AAAAB3RJTUUH5gwGBSE71w3ezgAAAAZiS0dEAAAAAAAA+UO7fwAALDVJREFUGBnswU3Mr4lZ0OHfc59/O5SWVkBKsCQEkooIColASLHtKbBwV40xMXFNAnqGQKIugQVu2FDTuvBjYYwL48qViRLTQTA0JGKihg/FgAqCBToz/ZhJp3PO4yhjMi0zJOedQt///V7XdTz53vMvn0fvCQAAANjp6L9eOrp/HD0IAAAAWOmspyYAAABgvQkAAABYbwIAAADWmwAAAID1JgAAAGC9CQAAAFhvAgAAANabAAAAgPUmAAAAYL0JAAAAWG8CAAAA1psAAACA9SYAAABgvQkAAABYbwIAAADWmwAAAID1JgAAAGC9CQAAAFhvAgAAANabAAAAgPUmAAAAYL0JAAAAWG8CAAAA1psAAACA9SYAAABgvQkAAABYbwIAAADWmwAAAID1JgAAAGC9CQAAAFhvAgAAANabAAAAgPUmAAAAYL0JAAAAWG8CAAAA1psAAACA9SYAAABgvQkAAABYbwIAAADWmwAAAID1JgAAAGC9CQAAAFhvAgAAANabAAAAgPUmAAAAYL0JAAAAWG8CAAAA1psAAACA9SYAAABgvQkAAABYbwIAAADWmwAAAID1JgAAAGC9CQAAAFhvAgAAANabAAAAgPUmAAAAYL0JAAAAWG8CAAAA1psAAACA9SYAAABgvQkAAABYbwIAAADWmwAAAID1JgAAAGC9CQAAAFhvAgAAANabAAAAgPUmAAAAYL0JAAAAWG8CAAAA1psAAACA9SYAAABgvQkAAABYbwIAAADWmwAAAID1JgAAAGC9CQAAAFhvAgAAANabAAAAgPUmAAAAYL0JAAAAWG8CAAAA1psAAACA9SYAAABgvQkAAABYbwIAAADWmwAAAID1JgAAAGC9CQAAAFhvAgAAANabAAAAgPUmAAAAYL0JAAAAWG8CAAAA1psAAACA9SYAAABgvQkAAABYbwIAAADWmwAAAID1JgAAAGC9CQAAAFhvAgAAANabAAAAgPUmAAAAYL0JAAAAWG8CAAAA1psAAACA9SYAAABgvQkAAABYbwIAAADWmwAAAID1JgAAAGC9CQAAAFhvAgAAANabAAAAgPUmAAAAYL0JAAAAWG8CAAAA1psAAACA9SYAAABgvQkAAABYbwIAAADWmwAAAID1JgAAAGC9CQAAAFhvAgAAANabAAAAgPUuwe95sXo2AABgmy+p3hh33iV4yXn2Hz701PHtAQAAqzy4f/6L4+j9cedNAAAAwHoTAAAAsN4EAAAArDcBAAAA600AAADAehMAAACw3gQAAACsNwEAAADrTQAAAMB6EwAAALDeBAAAAKw3AQAAAOtNAAAAwHoTAAAAsN4EAAAArDcBAAAA600AAADAehMAAACw3gQAAACsNwEAAADrTQAAAMB6EwAAALDeBAAAAKw3AQAAAOtNAAAAwHoTAAAAsN4EAAAArDcBAAAA600AAADAehMAAACw3gQAAACsNwEAAADrTQAAAMB6EwAAALDeBAAAAKw3AQAAAOtNAAAAwHoTAAAAsN4EAAAArDcBAAAA600AAADAehMAAACw3gQAAACsNwEAAADrTQAAAMB6EwAAALDeBAAAAKw3AQAAAOtNAAAAwHoTAAAAsN4EAAAArDcBAAAA600AAADAehMAAACw3gQAAACsNwEAAADrTQAAAMB6EwAAALDeBAAAAKw3AQAAAOtNAAAAwHoTAAAAsN4EAAAArDcBAAAA600AAADAehMAAACw3gQAAACsNwEAAADrTQAAAMB6EwAAALDeBAAAAKw3AQAAAOtNAAAAwHoTAAAAsN4EAAAArDcBAAAA600AAADAehMAAACw3gQAAACsNwEAAADrTQAAAMB6EwAAALDeBAAAAKw3AQAAAOtNAAAAwHoTAAAAsN4EAAAArDcBAAAA600AAADAehMAAACw3gQAAACsNwEAAADrTQAAAMB6EwAAALDeBAAAAKw3AQAAAOtNAAAAwHoTAAAAsN4EAAAArDcBAAAA600AAADAehMAAACw3gQAAACsNwEAAADrTQAAAMB6EwAAALDeBAAAAKw3AQAAAOtNAAAAwHoTAAAAsN4EAAAArDcBAAAA600AAADAehMAAACw3gQAAACsNwEAAADrTQAAAMB6EwAAALDeBAAAAKw3AQAAAOtNAAAAwHoTAAAAsN4EAAAArDcBAAAA600AAADAehMAAACw3gQAAACsNwEAAADrTQAAAMB6EwAAALDeBAAAAKw3AQAAAOtNAAAAwHoTAAAAsN4EAAAArDcBAAAA600AAADAehMAAACw3gQAAACsNwEAAADrTQAAAMB6EwAAALDeBAAAAKw3AQAAAOtNAAAAwHoTAAAAsN4EAAAArDcBAAAA600AAADAehMAAACw3iX4PZcH98+3B3CFjke90NnHP/jTx6Pg8+yvv+c8jqO3HEdvCuA6PRG85NIRdBy9o/qxAK7R9F+qv199Ivg8m+mLOvqLR707gOv0DXHnHXVeOqsjeHv1vQFco6Ofqv5J9Yng8+3oierd1fcGAFfqrGMCAAAA1psAAACA9SYAAABgvQkAAABYbwIAAADWmwAAAID1JgAAAGC9CQAAAFhvAgAAANabAAAAgPUmAAAAYL0JAAAAWG8CAAAA1psAAACA9SYAAABgvQkAAABYbwIAAADWmwAAAID1JgAAAGC9CQAAAFhvAgAAANabAAAAgPUmAAAAYL0JAAAAWG8CAAAA1psAAACA9SYAAABgvQkAAABYbwIAAADWmwAAAID1JgAAAGC9CQAAAFhvAgAAANabAAAAgPUuwe30dx6dfWCOuKHj7P3n0T8KAOAxnPV3j/qxuLHz7K8dRz9SfWlwi1yC2+m5v/dUv1NH3MwPvPf8REcAAI/ruQ9++PiduLEH989PVo+CW2YCAAAA1psAAACA9SYAAABgvQkAAABYbwIAAADWmwAAAID1JgAAAGC9SwC8mkfVL1Uf6e75U9V3VBNwrc7qF6uPdPd8Y/Ut1RMB8FkuAfBqHnb2kx986vjB7pgn33d+X/Wt1RsDrtXDs/7Nhz58/EB3zJP3zx/q6J3VEwHwWSYAAABgvQkAAABYbwIAAADWmwAAAID1JgAAAGC9CQAAAFhvAgAAANabAAAAgPUmAAAAYL0JAAAAWG8CAAAA1psAAACA9SYAAABgvQkAAABYbwIAAADWmwAAAID1JgAAAGC9CQAAAFhvAgAAANabAAAAgPUmAAAAYL0JAAAAWG8CAAAA1psAAACA9SYAAABgvQkAAABYbwIAAADWmwAAAID1JgAAAGC9CQAAAFhvAgAAANabAAAAgPUmAAAAYL0JAAAAWG8CAAAA1psAAACA9SYAAABgvQkAAABYbwIAAADWmwAAAID1JgAAAGC9CQAAAFhvAgAAANabAAAAgPUmAAAAYL0JAAAAWG8CAAAA1psAAACA9SYAAABgvQkAAABYbwIAAADWmwAAAID1JgAAAGC9CQAAAFhvAgAAANabAAAAgPUmAAAAYL0JAAAAWG8CAAAA1psAAACA9S4BKz06Oo94HeY8+rMP7p/f3x1znr37OLrXFTnPzoBXmqP+zIP75/d3x5z1rqOeiBs7znidjjqDW+gSsNKcHecRN3fvqPd29J3dPfeqe12R4+gIeKWp3nMcvau75151L27sPOJ1OqsjuH0uAfBapnpjANdpqjcGfCEcwS00AQAAAOtNAAAAwHoTAAAAsN4EAAAArDcBAAAA600AAADAepfgdnrT33hvX3YcZ9zYWwIAeHxvenD//LJ4Pd5cHcEtc+noDG6f75rpS+LGznpnAACP6ajv7OiH4/X409UXB7fMpbOjI7ht3lW9KwAA/qh9W/VtAetMAAAAwHoTAAAAsN4EAAAArDcBAAAA600AAADAehMAAACw3gQAAACsNwEAAADrTQAAAMB6EwAAALDeBAAAAKw3AQAAAOtNAAAAwHoTAAAAsN4EAAAArDcBAAAA600AAADAehMAAACw3gQAAACsNwEAAADrTQAAAMB6EwAAALDeBAAAAKw3AQAAAOtNAAAAwHoTAAAAsN4EAAAArDcBAAAA600AAADAehMAAACw3gQAAACsNwEAAADrTQAAAMB6EwAAALDeBAAAAKw3AQAAAOtNAAAAwHoTAAAAsN4EAAAArDcBAAAA600AAADAehMAAACw3gQAAACsNwEAAADrTQAAAMB6EwAAALDeBAAAAKw3AQAAAOtNAAAAwHoTAAAAsN4EAAAArDcBAAAA600AAADAehMAAACw3gQAAACsNwEAAADrTQAAAMB6EwAAALDeBAAAAKw3AQAAAOtNAAAAwHoTAAAAsN4EAAAArDcBAAAA600AAADAehMAAACw3gQAAACsNwEAAADrTQAAAMB6lwAAuCbPVj9fPRM3dam+tfqqAO6QSwAAXJNfO8/+5oeeOn4+buTJ++dbqn/a0fsDuEMmAAAAYL0JAAAAWG8CAOCaHEcA8PgmAAAAYL0JAAAAWG8CAAAA1psAALgmx3kEAI9tAgAAANa7BNfs7Ls6er675OxrO/qh6tsCAPjC+JXqJ6qf726Z8+yfH0fvCK7QJbhi9z7Tz33g3x2f6g558r3nJzp6NgDurOPsCL6wnjvPfuFDTx0f6Q55cP+8V306uFITAAAAsN4EAAAArDcBAAAA600AAFyT4wwAHt8EAAAArDcBAAAA600AAFyVIwB4fBMAAACw3gQAAACsdwm4KsdRZ9xCZ/Vs9Uy3zxdXbw/Y4jiPAOCxXQKuynlWR9w+L5xn//I4+sfdPn+++uEAALjTLgHw+fCo+tUPfvj4yW6ZJ++fb+0IAIA7bgIA4NocAcBjmgAAuC5nAPDYJgAAAGC9CQAAAFhvAgDgmhxHAPD4JgAArscZANzIBAAAAKw3AQBwTY4zAHh8EwAAV+MMAG5mAgAAANa7BADA1TiOAOBGJgAArs0RADymCQAAAFhvAgAAANa7BADA1TjPjgDgBiYAAABgvQkAAABY7xIAAFfjCABuZgIAAADWmwAAAID1JgAAAGC9CQCAa3IEADcwAQAAAOtNAAAAwHqXAAC4HkeddQQAj2kCAOBqnHUEADcwAQAAAOtNAABcjSMAuJlLAABcj7OOAODxTQAAAMB6EwAAALDeBADANTnOAODxTQAAXI0zALiZCQAAAFhvAgDgahxHAHAjlwD4fDiqNz+4f35lt8/bAlY5jo4A4DFdAq7KcdQZt9AbjqP3VW/r9vmaAAC48y4BV+U8qyNun3vVN1ffHAAA3EITAADX5DgDgMc3AQBwNc4A4GYmAAAAYL0JAICrcQQAN3MJAIDrcdYRADy+CQAAAFhvAgAAANabAAC4JkcAcAMTAAAAsN4luGIPL73jwf3zue6Ss6+snggA4AvnDdVXPLh/fnV3y73qElypS0dwvaYfP+phd8tbq68PgLvpqM6OuLHzqCNepz9RPTiO/mp3y9HZlwdX6tJZHcG1en93zREAd9hZR0e8DsfZ7zni5t52HL2nu+gIrtYEAAAArDcBAAAA610CAOBqHAHAzUwAAADAehMAAACw3gQAAACsdwkAgKtxnh0BwA1cAoDrd55ncCcc9eazvufB/fNr4kbO+qKO3nEEcLdcAoDrdxxHcDccfflRP1S9EDc11dsCuGMuAQBwTe5VXxYAPKYJAAAAWG8CAAAA1psAAACA9SYAAABgvQkAAABYbwIAAADWmwAAAID1JgAAAGC9CQAAAFhvAgAAANabAAAAgPUmAAAAYL0JAAAAWG8CAAAA1psAAACA9SYAAABgvQkAAABYbwIAAADWmwAAAID1JgAAAGC9CQAAAFhvAgAAANabAAAAgPUmAAAAYL0JAAAAWG8CAAAA1psAAACA9SYAAABgvQkAAABYbwIAAADWmwAAAID1JgAAAGC9CQAAAFhvAgAAANabAAAAgPUmAAAAYL0JAAAAWG8CAAAA1psAAACA9SYAAABgvQkAAABYbwIAAADWmwAAAID1JgAAAGC9CQAAAFhvAgAAANabAAAAgPUmAAAAYL0JAAAAWG8CAAAA1psAAACA9SYAAABgvQkAAABYbwIAAADWmwAAAID1JgAAAGC9CQAAAFhvAgAAANabAAAAgPUmAAAAYL0JAAAAWG8CAAAA1psAAACA9SYAAABgvQkAAABYbwIAAADWmwAAAID1JgAAAGC9CQAAAFhvAgAAANabAAAAgPUmAAAAYL0JAAAAWG8CAAAA1psAAACA9SYAAABgvUsAcOXOszPglc7qF86zj3T3fNNx9C3VEwHwWS4B8FrO6lF3z1FNV+Q4OgJe6dFZ/7b6W90xRz2o/mT1RAB8lksAvJqz+uXqZ7trzr6+o++oJuBandWLH3rq+FR3zJP3zxeqMwB+n0sAvJoXO/tXH3zq+MHumCffd35f9a3VGwMAYI0JAAAAWG8CAAAA1psAAACA9SYAAABgvQkAAABYbwIAAADWmwAAAID1JgAAAGC9CQAAAFhvAgAAANa7nEcdwX5nfayzf1Z9vFvkOHpD9ZeqrwsAeF3OOo+4hX7nPPvX1f/odnnTcfQ91TcGd8DlOKsjWO+o3+7oxz/44eO/d4s8+e7zLV36purrAgBel6OOuI3+d2f/8EM/dTzVLfLk+84/Xn1F9Y3BHTABAAAA600AAADAehMAAACw3gQAAACsNwEAAADrTQAAAMB6EwAAALDeBAAAAKw3AQAAAOtNAAAAwHoTAAAAsN4EAAAArDcBAAAA600AAADAehMAAACw3gQAAACsNwEAAADrTQAAAMB6EwAAALDeBAAAAKw3AQAAAOtNAAAAwHoTAAAAsN4EAAAArDcBAAAA600AAADAehMAAACw3gQAAACsNwEAAADrTQAAAMB6EwAAALDeBAAAAKw3AQAAAOtNAAAAwHoTAAAAsN4EAAAArHc5jzqC/c56W2d/5cH983e7XZ6o3hEA8LqddR5xC/2xjv7Cg/vn13aLnGdvOY6+LrgjLsdZHcF6R729ox+pHnX7fHEAwOt21BG30VcdRw+qh90uR/VFwR1xCe6Oqd4SAAB/1KZ6c8AX1AQAAACsNwEAAADrTQAAAMB6EwAAALDeBAAAAKw3AQAAAOtNAAAAwHqXAAB4bWcdR9fmqL76yfed393d887qDQHw+1wCgOt3nmfwh+LoJWd1dE3uHfXd1bd097ytenMA/D6XAHg19zr69iffd/7t7pqz7+joXtflOI7gD8V59P8cXZ23Vm8NAF52CYBXM9Wfq76hu+boiepeAACscgmA1/LG6o0BAMACEwAAALDeBAAAAKw3AQAAAOtNAAAAwHoTAAAAsN4EAAAArDcBAAAA600AAADAehMAAACw3gQAAACsNwEAAADrTQAAAMB6EwAAALDeBAAAAKw3AQAAAOtNAAAAwHoTAAAAsN4EAAAArDcBAAAA600AAADAehMAAACw3gQAAACsNwEAAADrTQAAAMB6EwAAALDeBAAAAKw3AQAAAOtNAAAAwG5nDycAAABgu89MAAAAwG5Hn54AAACA1Y6zFyYAAABgtfPohQkAAADY7tMTAAAAsNpx9sIEAAAA7Hb06QkAAADY7eyFCQAAANjuhQkAAABY7axPTwAAAMB2L0wAAADAakd9egIAAABWO+uFCQAAANjt6PkJAAAAWO2oZycAAABgtfPsYxMAAACw29nHJgAAAGCzzxzTJy8BAAAAa531dPXiJQAAAGCto57t7OEEAAAAbPZMRw8nAAAAYLNnO3s0AQAAAHudPVM9vAQAAADsdfTsWQ8vAQAAAGudZ09XDycAAABgs2fPs4eXAAAAgLWOeqZ6OAEAAACbPXuvHk0AAADAXke/ezzqxQkAAADY6pNnffIDP32cEwAAALDVR496vpdMAAAAwFa/ddaneskEAAAArHTWb1fP95IJAAAAWOmoj1bP9ZIJAAAA2OqjPer5XjIBAAAAO5199N6jnuslEwAAALDRc2c986X3erGXTAAAAMBGHzvqmR996uj/mgAAAICNnj7r471sAgAAADZ65qhne9kEAAAAbPR09fFeNgEAAAAbPX2efbyXTQAAAMBGTx8Pe7aXTQAAAMA2z3f20cvDXuhlEwAAALDNx6pf/4mfPfr/JgAAAGCbp8/6jV5hAgAAALZ5uvpfvcIEAAAAbPP0oxf7jV5hAgAAADb5TGe/+eLzfbJXmAAAAIBNnjvr1/7Bvz/OXmECAAAANvlUR7/S55gAAACATT7Vo/5bn2MCAAAANvnU+bBf63NMAAAAwBaPzrPf+oqf6Zk+xwQAAABs8bCjX/7RjrPPMQEAAABbvNjZL/UqJgAAAGCLh2f9Qq9iAgAAALZ44Q31i72KCQAAANjh7Nc/8NTx272KCQAAAFjhrJ/pNUwAAADAFh/pNUwAAADABudZH+k1TAAAAMDVO+tXO/por+ESAAAAcPWOs48c9UKv4RIAAABw/Y5+7qwXew0TAAAAcO0+U/3Hy9mLvYYJAAAAuHb/86zf/MBTx9lrmAAAAIBr9586+0R/gAkAAAC4bmf/+Tj7RH+ASwAAAMA1e3j0f9qDl1jNz8Owz7/341+RI7uXwJIXWaRdJIsC2STZtoA2XXTVAkWXDVq0blpEWQQBYrRBYDl2m0BxFIlzhqRpWY5lx6I0iiy7tEmREnlmeJFsirRIURQpSiIl8Tq8DcmZ4VzO+d7EadPCjsTLcObMd855nqeH31unexOrAAAAgP3syVnP/NPjY92bWILD40L1VLXTZhnVX6x+MvazWb1cvdTm+anqLwbw5l6sXm7z/EfVB6pVAPw435mjk72FpREcFifn7Beqk22QUX++0T+o/kbsZxfn7PbqN9owY/SfV/8ggDcxZ7dUv92GGfVfNfqfq/cFwI8yq0dHPddbWJrVCA6DM2N0/Mid4/ttkL/zX8yfaulvxX63W313a3vc2ob5Ox+cP9kI4E2N2eNHjo9b2zAf+uD8S6N2A+DHea361nvf02u9hVUAAADAfvX9OXv8l28b697CKgAADr05AmB/enKue7y3YRUAAACwH12Y9e1mT/U2rAIAAAD2o+er+4/eNWZvwyoAAKgZAPvNyVFf721aBQDAoTcCYJ/ZrZ5sp+/1Nq0CAAAA9puz1X1H7hoXeptWAQAAAPvNmVn39g6sAgDg0JujGQD7ySstfa13YBUAAIfeDIB9ZM760tbt443egVUAABx6IwD2ldntvUOrAABg3QyA/eJM9ZXeoVUAAADAfvLVre3xYu/QKgAAAGA/+VyXYBUAAIfeGM0A2A9eq+7sEiwBAAAA+8Ps1urFLsEqAAAAYD/Yrb441p3uEqwCAAAA9oMfNHro2hPjQpdgCQCAQ2/WDICNNuvuOXu2S7QKAAAA2HTnq/t21r3QJVoFAMChN0YAbLbvVt/8lRNd6BKtAgCAmgGwyR4c6x6r0aVaBQAAAGyy09X9R473dO/CKgAAAGCTPdHsgRq9G6sAADj05roZAJtoXX1v1kO9S6sAAACATXV6zu7f2u6l3qVVAAAAwKZ6ofpSjd6tVQAAHHpjBMDmWc/61pw90GWwCgAAANhEb4zZvzx6fJzvMlgCAAAANs6cPXOhbu4yWQUAwKE3awbApjl24/Y43WWyCgCAQ28GwIY5O+ozXUarAAAAgE1z986673QZrQIA4NAboxkAG2HO5qzfuuaazncZrQIAAAA2xqhvjdl9c7TbZbQEh8c11V/40AfnmTbJ7H3Ve2K/G9X7PvTB+f42z38QwFv7yQ99cL6/zfNT1Qjg8JiNfmfOnjl6x+hyWuaoERwKPzPr56szbZJVS/WfxX73nuq/rH6mTTP6SwG8tf+6+ittmFF/uXpvAIfHyVl3XXi917vMljGrERwG/+Go/6YRXAnXjNFfrf5qAPvQqL/W6K8FwNV215g9duP9Y3aZrQIAAAA2welm96x3eqYrYBUAAACwCR5r9LWjd48LXQFLAAAAwNW2M2f37ez0QFfIKgAAAOBqe3LUzS+93NmukFUAAADA1bTb7MGLF7rz2COjK2UVAAAAcDWdqj53w73jbFfQKgAAAOBqenS12xe7wlYBAAAAV8t6zj798bvGK11hqwAAAICrYtbLXeym9sAqAAAA4OqY/cb77+ml9sAqAAAAYO/NXl7Pbvxwo72wCgAAANhzs25ajZ5rj6wCAAAA9trJ6ndbd7o9sgoAAADYW7NbRn1j68RYt0dWAQAAAHvpmVl/0G4n20OrAAAAgL1015jde+SusdseWgUAAADsladm3dzs6fbYKgAAAGAv7FZfHbvdeuTEmO2xVQAAAMBeeKHZzUdOjBe7ClYBAAAAV9q6erjRLV0lSwAAAMCV9sac/ebW9jjZVbIKAAAAuLJmj87ZF7qKVgEAAABX1uhjR4+P17qKlgAAAIArZs6+Vn2+q2wJAAAAuFLeGKOPVue7ypYAAACAK+WOWSe27hy7XWVLAAAAwJVwstmnVutOtgFWAQAAAFfC7dW9154YF9sAqwAAAIDL7ck5+91Rz7YhlgAAAIDL6eKsW8a6W689MXbbEKsAAACAy2VWj7TuXx45MV5vg6wCAAAALpezzW4e7+urbZglAAAA4HJ5bI4+uXXL2G3DLAEAAACXw3rOjm5tj++1gVYBAAAA79qc3TtHn21DrQIAAADerYur+vmjd47TbaglAAAA4N1Yz9mvzrqvDbYEAAAAvBvfa/apC6c73QZbBQAAAFyqc9VvterRG+8fsw22BAAAAFyqr83ZzVvbvdqGWwUAAABciheqz81136zRplsCAAAA3qndWXc3+uzRE+Nc+8AqAAAA4J16otnROXqufWIJAAAAeCfOzbppa3t8uX1kCQAAAHj7Zvev1n2sfWYVAAAA8Ha9Vv3StSfGS+0zqwAAAIC3619cU3e2D60CAAAA3o4HZn3i4uhC+9AqAAAA4K28MevoevTY0TvHbB9aBQAAALyZnVmfmrM/2Fl1oX1qCQAAAPhxZvVws5uObo/n2sdWAQAAAD/OqTm7aWfVV9rnVgEAAAA/yk6ze6rP3HDHON8+twoAAAD4UZ6rjmxtjyc7AFYBAAAAf9burOtGbXdALAHAPjfrP2n29z70wXkmuNxmPzHqrzcC4PCYs+46c6F//uv3jAsdEEsAsM+N+k8b/f0AAC6DOfvOrP/11+8Z5zpAlgAAAIB/56Ux+sVRT3TALAEAAAB/4nyzm2Z9cWt7XOiAWQIAAAD+xL1z9MmfeE8vdACtAgAAAJ5s9muzHv7l28bsAFoFAAAAh9sbzX73mvrC0TvHhQ6oVQAAAHB4refsxFz3S/9xnekAWwIAAIDD6/tz9ItHT4wXO+CWAAAA4HC60OzjR7fHPR0CqwAAAODwmc2Ordd9skNiCQAAAA6ZObu72Ueq0x0SqwAAAOBweWLUL8965OiJMTskVgEAAMDhcar657NuO3p87HSILAEAAMDhcKb65NztN7dOjHMdMqsAAADg4LtY3Tbruq0T41SH0BIAAAAcbLN6ZM4+urU9vtshtQoAAAAOttfn7JcuvN49HWKrAAAA4OCac/aRLvZ7N94/ZofYKgAAADi4PtfsE1v3jAsdcksAAABw8KyrP1qv+/D3X+75aBUAAAAcLLN6fNY/uvieHrv5GyNqFQAAABwsT1X/rNn2jV8au/FvrQIAAICD46VZ1zf73Nb2eCP+P0sAAABwMJybs9+a9Ymt7fFK/ClLAAAAcADM2e276/7x9SfGC/HvWQIAAID9bTb7452d/pcb7u75+JGWAAAAYP9az3p41t8c9VyN+NGWAAAAYH+ac/at6udmPXb93SN+vFUAAACwPz1RfWTU8eu2x068qVUAAACw/zxf3VD93pHt8Ua8pVUAAACwv5yds882+/Wt7XEq3pYlAAAA2D/Ws7441/3i1onxYrxtSwAAALA/7FR3zNnfvHim0/GOLAEAAMDmuzBn2+vR/3jd9jgd79gqAAAA2GwXmn1pzP7eNTs9G5dkFQAAAGyui822m/3CNeu+deSuMeOSrAIAAIDNtNvsnmb/aM4e+NhdYzcu2RIAAABsnjnroWb/+2r2tSMnxk68K0sAAACwYebsu2P0s7uzP946Mdbxri0BAADA5pizvjfqvz1y53goLptVAAAAsBlm9Ujr/tZ63TfisloFAAAAm+Ebc/YP56q7j54YMy6rJQAAALi6ZrOHq/+z+uLRO8f5uOyWAAAA4OqZc/atUT8/Z7dtHR9n44pYAgAAgKtl9sQc/d3WHd86Ps7HFbMEAAAAe29Wj1f/XfWNreNjxhW1BAAAAHtrt9mDY93/dO2J8VDsiVUAAACwdy7MOj5nf3vOHoo9swoAAAD2xoVmt4/Z/9Hsa0fuGuvYM0sAAABw5Z2vblvPfmHs9PWte8Zu7KklAAAAuLJ2qtua/f3di337hnvHOvbcEgAAAFw562ZfXF3Tz47dTh65d8y4KpYAAADgyjjT7A+uudj/8LHtcTauqlUAAABw+Z2cs19br/vbZ891Nq66JQAAALh8ZvXErBurTx49MV6IjbAEAAAAl8d61mNz9pHqC0e3x6nYGEsAAADw7s3qm81+btbx67bH2dgoSwAAAPDufWNd/307PXLd3WMnNs4SAAAAXLrzc/bl3frZ3Xr2xrvHjI20BAAAAJfmpeqm3dkvXX+852rE5loCAACAd2ZWTze7odknrj8+no+NtwQAAABv35z13eqjjW7a2h6vxL6wBAAAAG/fg81+Yay7/ciJcSb2jSUAAAB4e7446ud265vXnRg7sa8sAQAAwJs7W11Xffx9s6f/yfaYse8sAQAAwI+2U3232T8e6z577YnxRuxbSwAAAPDvO1fdNeujP/Hnuv2Xbxu7sa8tAQAAwJ92etZvjtkNW9vjoTgQlgAAAOD/91yzj6/W/dq1J8YLcWAsAQAAwP/j69VHZv3ekRPjTBwoSwAAABx2u83+oNH/NeqBn64LceAsAQAAcFitq+ebfXLMrp31wrXbY8aBtAQAAMBhdH7Wfc0+8v76/Q8fH+s40JYAAAA4bJ6Zdct63S9ed3x8Pw6FJQAAAA6Li9V9zT41d/rMzhudikNjCQAAgMPgVPU7s351VQ8cvXucj0NlCQAAgINsztkPR32k+vy8puev/fJYx6GzBAAAwEG12+yP5rr/bbXq0Wu3x/k4tJYAAAA4aHbn7Pnqxovv6Z/+yu3jbBx6SwAAABwkp+bsj2ZdO+tLv3L7OB/8G0sAAAAcBLvVY9Vn5uzTJ1/oO8ceGTP4fy0BAACw352b9Zlmv71ad/fRE+Ns8GcsAQAAsJ99c8625ujmo9s9VSP4UZYAAADYj85Un66un+se2d3pXI3gx1kCAABgPzk/66Ex+yfXXNOtu7M3jp4YM3gLSwAAAOwH6+oHc/a5dX30uu3xbPAOLAEAALDpTs36ylh3/fM/0+8fOzbWwTu0BAAAwKY6Xz1Ufb66aX1N3z92bMzgEiwBAACwaWazp+fo09UXRn19685xNngXlgAAANgYczYbfbbZDdU3xp/v5SO3jBm8S0sAAABsgvWsxxv9fPXFnYu9dsO9Yx1cJksAAABcTeeqJ2d9as5+9ej2eDG4ApYAAAC4GtbVE7Nurz5xevbH/2J7rIMrZAkAAIC99sqc3Tbq08tut3/srnE2uMKWAAAA2CtvVF+p/tVq9IVr7xzPBHtkCQAAgCvt4qyvj9lvVXdU3752e1wI9tASAAAAV87sB3N0baPfbfb0T9cbH94ewV5bAgAA4HLarc5WX2v2z2b94axTq/e2c+SWEVwtSwAAAFwOO9Xz1f1z3a+N2ZeOnBhngw2xBAAAwLsxq+/P2b1j9Dtzt9u3ToxXgw2zBAAAwKWY1Q+q7Tn7/WtGt3/8znEq2FBLAAAAvBOz2TPV/13duh59ddbJrTvHDDbYEgAAAG/LrGdHfXrObh71zbHTi0fvGetgH1gCAADgzayrp2b9xlj36616oZ3OHrlnrIN9ZAkAAIA/a6d6Zc4ebvSbY/T5rTvGq8E+tgQAAMC/c6F6YtYDzY5dM7rj43eOV4MDYAkAAIDXqkebfaW6eXenu6+/e5wLDpAlAACAw2ldPV3d3ewrc3Rfo69v3TnOBQfQEgAAwCEyZ7vVg42+UN3b7PHdnZ69/u5xMTjAlgAAAA6HV6o7qk9XD87Zcyc/0Oljx0ZwGCwBAAAcTDvVG82+V3161hfG6Aezzl+s9Y3bIzhMlgAAAA6OdfVa9Xyz+6rfPv96X77x/nEhOOSWAAAA9r/T1ZPV482+MuuWdT163fbYCfi3lgAAAPanC9UT1UPN7qseWNdDH9juhQ83Av60JQAAgP1jt3q6+kr11VkPj9m3n/tAPzx2bMyAH2sJAABgw806PWZ3zLq10QPVM7NOnnx/548dGwFvbQkAAGDzzOp89UD1+Tm6dcyem7PTJz/Q+WPHRsA7swQAAHB1ratz1ZnqtVn3Vl+ao+2TP90Pjx0bM+BdWwIAANh7O9WL1clmT836+hjdu7Pqnuu/PE4FXHZLAAAAe+Ns9VT1RLNvVw/O2YNj3WNbd43XA66oJQAAgCvnleqRWQ83+1b1+Jw9Pt7bE1u3jZ2APbMEAABw+Zxq9nijh+fs4erRMXpmrnt692Iv33Dv2A24KpYAAAAu0Zydqe6v7qvur7496pXq9Jy9fvR4b9QIuPqWAAAAfrzdarfaqXaqU3P2x2P01WZ/WD1cnW22s66dczvtfvKeEbB5lgAAAGpW56sz1dnqbPVa9cM5+1azR1f14Omdvv3Je8b5gH1nCQAAOGxm9Xr1SvVK9Ur18pw9NUbfWa/77qqemLMfbp0YZwIOhCUAAOCgOlO9Ur1cvVK9Ur0yZy81embMnp71zKynl9Gzf6HOffjOEXAwLQEAAPvX7Fyj56vnq5PVyWYnGz0/66VmrzZ6dcxeHfXqrNfGn+vVI7eNnYBDZQkAANg061lnq1PNXq1ONXp5zF6pXqtOVS81erY6WZ1pdnbW2ersavbGenZ2Pbp43fYI4E8ss54c9YcBAACXajbbnaOdanfUTnWx2q12Zu2M2mm2W+3M2ql2Rl2sTlcvzdFLc/bSqBdXq07Ndeeq3Wq32q12Z+2O2q12Z+3O0cVW7R798gjgrfxrFqVaVCWU1K8AAAAldEVYdGRhdGU6Y3JlYXRlADIwMjItMTItMDZUMDU6MzM6NTkrMDA6MDDSDN6HAAAAJXRFWHRkYXRlOm1vZGlmeQAyMDIyLTEyLTA2VDA1OjMzOjU5KzAwOjAwo1FmOwAAAABJRU5ErkJggg==;" vertex="1" parent="1">
          <mxGeometry x="835" y="286" width="62" height="62" as="geometry" />
        </mxCell>
        <mxCell id="u3GOakAXPToixl_BFqBM-8" style="edgeStyle=orthogonalEdgeStyle;rounded=0;orthogonalLoop=1;jettySize=auto;html=1;" edge="1" parent="1" source="u3GOakAXPToixl_BFqBM-2" target="u3GOakAXPToixl_BFqBM-3">
          <mxGeometry relative="1" as="geometry" />
        </mxCell>
        <mxCell id="u3GOakAXPToixl_BFqBM-2" value="PromQL" style="rounded=1;whiteSpace=wrap;html=1;fillColor=none;" vertex="1" parent="1">
          <mxGeometry x="318" y="304" width="120" height="60" as="geometry" />
        </mxCell>
        <mxCell id="u3GOakAXPToixl_BFqBM-9" style="edgeStyle=orthogonalEdgeStyle;rounded=0;orthogonalLoop=1;jettySize=auto;html=1;" edge="1" parent="1" source="u3GOakAXPToixl_BFqBM-3" target="u3GOakAXPToixl_BFqBM-5">
          <mxGeometry relative="1" as="geometry" />
        </mxCell>
        <mxCell id="u3GOakAXPToixl_BFqBM-3" value="Pre-filter" style="rounded=1;whiteSpace=wrap;html=1;fillColor=none;" vertex="1" parent="1">
          <mxGeometry x="468" y="304" width="120" height="60" as="geometry" />
        </mxCell>
        <mxCell id="u3GOakAXPToixl_BFqBM-10" style="edgeStyle=orthogonalEdgeStyle;rounded=0;orthogonalLoop=1;jettySize=auto;html=1;entryX=1;entryY=0.5;entryDx=0;entryDy=0;exitX=0.5;exitY=1;exitDx=0;exitDy=0;" edge="1" parent="1" source="u3GOakAXPToixl_BFqBM-5" target="u3GOakAXPToixl_BFqBM-6">
          <mxGeometry relative="1" as="geometry" />
        </mxCell>
        <mxCell id="u3GOakAXPToixl_BFqBM-22" style="edgeStyle=orthogonalEdgeStyle;rounded=0;orthogonalLoop=1;jettySize=auto;html=1;" edge="1" parent="1" source="u3GOakAXPToixl_BFqBM-5">
          <mxGeometry relative="1" as="geometry">
            <mxPoint x="799.7777608235679" y="414" as="targetPoint" />
          </mxGeometry>
        </mxCell>
        <mxCell id="u3GOakAXPToixl_BFqBM-5" value="Fanout" style="rounded=1;whiteSpace=wrap;html=1;fillColor=none;" vertex="1" parent="1">
          <mxGeometry x="630" y="384" width="120" height="60" as="geometry" />
        </mxCell>
        <mxCell id="u3GOakAXPToixl_BFqBM-13" style="edgeStyle=orthogonalEdgeStyle;rounded=0;orthogonalLoop=1;jettySize=auto;html=1;" edge="1" parent="1" source="u3GOakAXPToixl_BFqBM-6" target="u3GOakAXPToixl_BFqBM-7">
          <mxGeometry relative="1" as="geometry" />
        </mxCell>
        <mxCell id="u3GOakAXPToixl_BFqBM-6" value="Merge" style="rounded=1;whiteSpace=wrap;html=1;fillColor=none;" vertex="1" parent="1">
          <mxGeometry x="468" y="466" width="120" height="60" as="geometry" />
        </mxCell>
        <mxCell id="u3GOakAXPToixl_BFqBM-7" value="Deduplicate" style="rounded=1;whiteSpace=wrap;html=1;fillColor=none;" vertex="1" parent="1">
          <mxGeometry x="318" y="466" width="120" height="60" as="geometry" />
        </mxCell>
        <mxCell id="u3GOakAXPToixl_BFqBM-15" value="" style="shape=image;verticalLabelPosition=bottom;labelBackgroundColor=default;verticalAlign=top;aspect=fixed;imageAspect=0;image=data:image/png,iVBORw0KGgoAAAANSUhEUgAABAAAAAQACAYAAAB/HSuDAAAABGdBTUEAALGPC/xhBQAAACBjSFJNAAB6JgAAgIQAAPoAAACA6AAAdTAAAOpgAAA6mAAAF3CculE8AAAAB3RJTUUH5gwGBSE71w3ezgAAAAZiS0dEAAAAAAAA+UO7fwAALDVJREFUGBnswU3Mr4lZ0OHfc59/O5SWVkBKsCQEkooIColASLHtKbBwV40xMXFNAnqGQKIugQVu2FDTuvBjYYwL48qViRLTQTA0JGKihg/FgAqCBToz/ZhJp3PO4yhjMi0zJOedQt///V7XdTz53vMvn0fvCQAAANjp6L9eOrp/HD0IAAAAWOmspyYAAABgvQkAAABYbwIAAADWmwAAAID1JgAAAGC9CQAAAFhvAgAAANabAAAAgPUmAAAAYL0JAAAAWG8CAAAA1psAAACA9SYAAABgvQkAAABYbwIAAADWmwAAAID1JgAAAGC9CQAAAFhvAgAAANabAAAAgPUmAAAAYL0JAAAAWG8CAAAA1psAAACA9SYAAABgvQkAAABYbwIAAADWmwAAAID1JgAAAGC9CQAAAFhvAgAAANabAAAAgPUmAAAAYL0JAAAAWG8CAAAA1psAAACA9SYAAABgvQkAAABYbwIAAADWmwAAAID1JgAAAGC9CQAAAFhvAgAAANabAAAAgPUmAAAAYL0JAAAAWG8CAAAA1psAAACA9SYAAABgvQkAAABYbwIAAADWmwAAAID1JgAAAGC9CQAAAFhvAgAAANabAAAAgPUmAAAAYL0JAAAAWG8CAAAA1psAAACA9SYAAABgvQkAAABYbwIAAADWmwAAAID1JgAAAGC9CQAAAFhvAgAAANabAAAAgPUmAAAAYL0JAAAAWG8CAAAA1psAAACA9SYAAABgvQkAAABYbwIAAADWmwAAAID1JgAAAGC9CQAAAFhvAgAAANabAAAAgPUmAAAAYL0JAAAAWG8CAAAA1psAAACA9SYAAABgvQkAAABYbwIAAADWmwAAAID1JgAAAGC9CQAAAFhvAgAAANabAAAAgPUmAAAAYL0JAAAAWG8CAAAA1psAAACA9SYAAABgvQkAAABYbwIAAADWmwAAAID1JgAAAGC9CQAAAFhvAgAAANabAAAAgPUmAAAAYL0JAAAAWG8CAAAA1psAAACA9SYAAABgvQkAAABYbwIAAADWmwAAAID1JgAAAGC9CQAAAFhvAgAAANabAAAAgPUmAAAAYL0JAAAAWG8CAAAA1psAAACA9SYAAABgvQkAAABYbwIAAADWmwAAAID1JgAAAGC9CQAAAFhvAgAAANabAAAAgPUuwe95sXo2AABgmy+p3hh33iV4yXn2Hz701PHtAQAAqzy4f/6L4+j9cedNAAAAwHoTAAAAsN4EAAAArDcBAAAA600AAADAehMAAACw3gQAAACsNwEAAADrTQAAAMB6EwAAALDeBAAAAKw3AQAAAOtNAAAAwHoTAAAAsN4EAAAArDcBAAAA600AAADAehMAAACw3gQAAACsNwEAAADrTQAAAMB6EwAAALDeBAAAAKw3AQAAAOtNAAAAwHoTAAAAsN4EAAAArDcBAAAA600AAADAehMAAACw3gQAAACsNwEAAADrTQAAAMB6EwAAALDeBAAAAKw3AQAAAOtNAAAAwHoTAAAAsN4EAAAArDcBAAAA600AAADAehMAAACw3gQAAACsNwEAAADrTQAAAMB6EwAAALDeBAAAAKw3AQAAAOtNAAAAwHoTAAAAsN4EAAAArDcBAAAA600AAADAehMAAACw3gQAAACsNwEAAADrTQAAAMB6EwAAALDeBAAAAKw3AQAAAOtNAAAAwHoTAAAAsN4EAAAArDcBAAAA600AAADAehMAAACw3gQAAACsNwEAAADrTQAAAMB6EwAAALDeBAAAAKw3AQAAAOtNAAAAwHoTAAAAsN4EAAAArDcBAAAA600AAADAehMAAACw3gQAAACsNwEAAADrTQAAAMB6EwAAALDeBAAAAKw3AQAAAOtNAAAAwHoTAAAAsN4EAAAArDcBAAAA600AAADAehMAAACw3gQAAACsNwEAAADrTQAAAMB6EwAAALDeBAAAAKw3AQAAAOtNAAAAwHoTAAAAsN4EAAAArDcBAAAA600AAADAehMAAACw3gQAAACsNwEAAADrTQAAAMB6EwAAALDeBAAAAKw3AQAAAOtNAAAAwHoTAAAAsN4EAAAArDcBAAAA600AAADAehMAAACw3gQAAACsNwEAAADrTQAAAMB6EwAAALDeBAAAAKw3AQAAAOtNAAAAwHoTAAAAsN4EAAAArDcBAAAA600AAADAehMAAACw3gQAAACsNwEAAADrTQAAAMB6EwAAALDeBAAAAKw3AQAAAOtNAAAAwHoTAAAAsN4EAAAArDcBAAAA600AAADAehMAAACw3gQAAACsNwEAAADrTQAAAMB6EwAAALDeBAAAAKw3AQAAAOtNAAAAwHoTAAAAsN4EAAAArDcBAAAA600AAADAehMAAACw3iX4PZcH98+3B3CFjke90NnHP/jTx6Pg8+yvv+c8jqO3HEdvCuA6PRG85NIRdBy9o/qxAK7R9F+qv199Ivg8m+mLOvqLR707gOv0DXHnHXVeOqsjeHv1vQFco6Ofqv5J9Yng8+3oierd1fcGAFfqrGMCAAAA1psAAACA9SYAAABgvQkAAABYbwIAAADWmwAAAID1JgAAAGC9CQAAAFhvAgAAANabAAAAgPUmAAAAYL0JAAAAWG8CAAAA1psAAACA9SYAAABgvQkAAABYbwIAAADWmwAAAID1JgAAAGC9CQAAAFhvAgAAANabAAAAgPUmAAAAYL0JAAAAWG8CAAAA1psAAACA9SYAAABgvQkAAABYbwIAAADWmwAAAID1JgAAAGC9CQAAAFhvAgAAANabAAAAgPUuwe30dx6dfWCOuKHj7P3n0T8KAOAxnPV3j/qxuLHz7K8dRz9SfWlwi1yC2+m5v/dUv1NH3MwPvPf8REcAAI/ruQ9++PiduLEH989PVo+CW2YCAAAA1psAAACA9SYAAABgvQkAAABYbwIAAADWmwAAAID1JgAAAGC9SwC8mkfVL1Uf6e75U9V3VBNwrc7qF6uPdPd8Y/Ut1RMB8FkuAfBqHnb2kx986vjB7pgn33d+X/Wt1RsDrtXDs/7Nhz58/EB3zJP3zx/q6J3VEwHwWSYAAABgvQkAAABYbwIAAADWmwAAAID1JgAAAGC9CQAAAFhvAgAAANabAAAAgPUmAAAAYL0JAAAAWG8CAAAA1psAAACA9SYAAABgvQkAAABYbwIAAADWmwAAAID1JgAAAGC9CQAAAFhvAgAAANabAAAAgPUmAAAAYL0JAAAAWG8CAAAA1psAAACA9SYAAABgvQkAAABYbwIAAADWmwAAAID1JgAAAGC9CQAAAFhvAgAAANabAAAAgPUmAAAAYL0JAAAAWG8CAAAA1psAAACA9SYAAABgvQkAAABYbwIAAADWmwAAAID1JgAAAGC9CQAAAFhvAgAAANabAAAAgPUmAAAAYL0JAAAAWG8CAAAA1psAAACA9SYAAABgvQkAAABYbwIAAADWmwAAAID1JgAAAGC9CQAAAFhvAgAAANabAAAAgPUmAAAAYL0JAAAAWG8CAAAA1psAAACA9S4BKz06Oo94HeY8+rMP7p/f3x1znr37OLrXFTnPzoBXmqP+zIP75/d3x5z1rqOeiBs7znidjjqDW+gSsNKcHecRN3fvqPd29J3dPfeqe12R4+gIeKWp3nMcvau75151L27sPOJ1OqsjuH0uAfBapnpjANdpqjcGfCEcwS00AQAAAOtNAAAAwHoTAAAAsN4EAAAArDcBAAAA600AAADAepfgdnrT33hvX3YcZ9zYWwIAeHxvenD//LJ4Pd5cHcEtc+noDG6f75rpS+LGznpnAACP6ajv7OiH4/X409UXB7fMpbOjI7ht3lW9KwAA/qh9W/VtAetMAAAAwHoTAAAAsN4EAAAArDcBAAAA600AAADAehMAAACw3gQAAACsNwEAAADrTQAAAMB6EwAAALDeBAAAAKw3AQAAAOtNAAAAwHoTAAAAsN4EAAAArDcBAAAA600AAADAehMAAACw3gQAAACsNwEAAADrTQAAAMB6EwAAALDeBAAAAKw3AQAAAOtNAAAAwHoTAAAAsN4EAAAArDcBAAAA600AAADAehMAAACw3gQAAACsNwEAAADrTQAAAMB6EwAAALDeBAAAAKw3AQAAAOtNAAAAwHoTAAAAsN4EAAAArDcBAAAA600AAADAehMAAACw3gQAAACsNwEAAADrTQAAAMB6EwAAALDeBAAAAKw3AQAAAOtNAAAAwHoTAAAAsN4EAAAArDcBAAAA600AAADAehMAAACw3gQAAACsNwEAAADrTQAAAMB6EwAAALDeBAAAAKw3AQAAAOtNAAAAwHoTAAAAsN4EAAAArDcBAAAA600AAADAehMAAACw3gQAAACsNwEAAADrTQAAAMB6lwAAuCbPVj9fPRM3dam+tfqqAO6QSwAAXJNfO8/+5oeeOn4+buTJ++dbqn/a0fsDuEMmAAAAYL0JAAAAWG8CAOCaHEcA8PgmAAAAYL0JAAAAWG8CAAAA1psAALgmx3kEAI9tAgAAANa7BNfs7Ls6er675OxrO/qh6tsCAPjC+JXqJ6qf726Z8+yfH0fvCK7QJbhi9z7Tz33g3x2f6g558r3nJzp6NgDurOPsCL6wnjvPfuFDTx0f6Q55cP+8V306uFITAAAAsN4EAAAArDcBAAAA600AAFyT4wwAHt8EAAAArDcBAAAA600AAFyVIwB4fBMAAACw3gQAAACsdwm4KsdRZ9xCZ/Vs9Uy3zxdXbw/Y4jiPAOCxXQKuynlWR9w+L5xn//I4+sfdPn+++uEAALjTLgHw+fCo+tUPfvj4yW6ZJ++fb+0IAIA7bgIA4NocAcBjmgAAuC5nAPDYJgAAAGC9CQAAAFhvAgDgmhxHAPD4JgAArscZANzIBAAAAKw3AQBwTY4zAHh8EwAAV+MMAG5mAgAAANa7BADA1TiOAOBGJgAArs0RADymCQAAAFhvAgAAANa7BADA1TjPjgDgBiYAAABgvQkAAABY7xIAAFfjCABuZgIAAADWmwAAAID1JgAAAGC9CQCAa3IEADcwAQAAAOtNAAAAwHqXAAC4HkeddQQAj2kCAOBqnHUEADcwAQAAAOtNAABcjSMAuJlLAABcj7OOAODxTQAAAMB6EwAAALDeBADANTnOAODxTQAAXI0zALiZCQAAAFhvAgDgahxHAHAjlwD4fDiqNz+4f35lt8/bAlY5jo4A4DFdAq7KcdQZt9AbjqP3VW/r9vmaAAC48y4BV+U8qyNun3vVN1ffHAAA3EITAADX5DgDgMc3AQBwNc4A4GYmAAAAYL0JAICrcQQAN3MJAIDrcdYRADy+CQAAAFhvAgAAANabAAC4JkcAcAMTAAAAsN4luGIPL73jwf3zue6Ss6+snggA4AvnDdVXPLh/fnV3y73qElypS0dwvaYfP+phd8tbq68PgLvpqM6OuLHzqCNepz9RPTiO/mp3y9HZlwdX6tJZHcG1en93zREAd9hZR0e8DsfZ7zni5t52HL2nu+gIrtYEAAAArDcBAAAA610CAOBqHAHAzUwAAADAehMAAACw3gQAAACsdwkAgKtxnh0BwA1cAoDrd55ncCcc9eazvufB/fNr4kbO+qKO3nEEcLdcAoDrdxxHcDccfflRP1S9EDc11dsCuGMuAQBwTe5VXxYAPKYJAAAAWG8CAAAA1psAAACA9SYAAABgvQkAAABYbwIAAADWmwAAAID1JgAAAGC9CQAAAFhvAgAAANabAAAAgPUmAAAAYL0JAAAAWG8CAAAA1psAAACA9SYAAABgvQkAAABYbwIAAADWmwAAAID1JgAAAGC9CQAAAFhvAgAAANabAAAAgPUmAAAAYL0JAAAAWG8CAAAA1psAAACA9SYAAABgvQkAAABYbwIAAADWmwAAAID1JgAAAGC9CQAAAFhvAgAAANabAAAAgPUmAAAAYL0JAAAAWG8CAAAA1psAAACA9SYAAABgvQkAAABYbwIAAADWmwAAAID1JgAAAGC9CQAAAFhvAgAAANabAAAAgPUmAAAAYL0JAAAAWG8CAAAA1psAAACA9SYAAABgvQkAAABYbwIAAADWmwAAAID1JgAAAGC9CQAAAFhvAgAAANabAAAAgPUmAAAAYL0JAAAAWG8CAAAA1psAAACA9SYAAABgvQkAAABYbwIAAADWmwAAAID1JgAAAGC9CQAAAFhvAgAAANabAAAAgPUmAAAAYL0JAAAAWG8CAAAA1psAAACA9SYAAABgvUsAcOXOszPglc7qF86zj3T3fNNx9C3VEwHwWS4B8FrO6lF3z1FNV+Q4OgJe6dFZ/7b6W90xRz2o/mT1RAB8lksAvJqz+uXqZ7trzr6+o++oJuBandWLH3rq+FR3zJP3zxeqMwB+n0sAvJoXO/tXH3zq+MHumCffd35f9a3VGwMAYI0JAAAAWG8CAAAA1psAAACA9SYAAABgvQkAAABYbwIAAADWmwAAAID1JgAAAGC9CQAAAFhvAgAAANa7nEcdwX5nfayzf1Z9vFvkOHpD9ZeqrwsAeF3OOo+4hX7nPPvX1f/odnnTcfQ91TcGd8DlOKsjWO+o3+7oxz/44eO/d4s8+e7zLV36purrAgBel6OOuI3+d2f/8EM/dTzVLfLk+84/Xn1F9Y3BHTABAAAA600AAADAehMAAACw3gQAAACsNwEAAADrTQAAAMB6EwAAALDeBAAAAKw3AQAAAOtNAAAAwHoTAAAAsN4EAAAArDcBAAAA600AAADAehMAAACw3gQAAACsNwEAAADrTQAAAMB6EwAAALDeBAAAAKw3AQAAAOtNAAAAwHoTAAAAsN4EAAAArDcBAAAA600AAADAehMAAACw3gQAAACsNwEAAADrTQAAAMB6EwAAALDeBAAAAKw3AQAAAOtNAAAAwHoTAAAAsN4EAAAArHc5jzqC/c56W2d/5cH983e7XZ6o3hEA8LqddR5xC/2xjv7Cg/vn13aLnGdvOY6+LrgjLsdZHcF6R729ox+pHnX7fHEAwOt21BG30VcdRw+qh90uR/VFwR1xCe6Oqd4SAAB/1KZ6c8AX1AQAAACsNwEAAADrTQAAAMB6EwAAALDeBAAAAKw3AQAAAOtNAAAAwHqXAAB4bWcdR9fmqL76yfed393d887qDQHw+1wCgOt3nmfwh+LoJWd1dE3uHfXd1bd097ytenMA/D6XAHg19zr69iffd/7t7pqz7+joXtflOI7gD8V59P8cXZ23Vm8NAF52CYBXM9Wfq76hu+boiepeAACscgmA1/LG6o0BAMACEwAAALDeBAAAAKw3AQAAAOtNAAAAwHoTAAAAsN4EAAAArDcBAAAA600AAADAehMAAACw3gQAAACsNwEAAADrTQAAAMB6EwAAALDeBAAAAKw3AQAAAOtNAAAAwHoTAAAAsN4EAAAArDcBAAAA600AAADAehMAAACw3gQAAACsNwEAAADrTQAAAMB6EwAAALDeBAAAAKw3AQAAAOtNAAAAwG5nDycAAABgu89MAAAAwG5Hn54AAACA1Y6zFyYAAABgtfPohQkAAADY7tMTAAAAsNpx9sIEAAAA7Hb06QkAAADY7eyFCQAAANjuhQkAAABY7axPTwAAAMB2L0wAAADAakd9egIAAABWO+uFCQAAANjt6PkJAAAAWO2oZycAAABgtfPsYxMAAACw29nHJgAAAGCzzxzTJy8BAAAAa531dPXiJQAAAGCto57t7OEEAAAAbPZMRw8nAAAAYLNnO3s0AQAAAHudPVM9vAQAAADsdfTsWQ8vAQAAAGudZ09XDycAAABgs2fPs4eXAAAAgLWOeqZ6OAEAAACbPXuvHk0AAADAXke/ezzqxQkAAADY6pNnffIDP32cEwAAALDVR496vpdMAAAAwFa/ddaneskEAAAArHTWb1fP95IJAAAAWOmoj1bP9ZIJAAAA2OqjPer5XjIBAAAAO5199N6jnuslEwAAALDRc2c986X3erGXTAAAAMBGHzvqmR996uj/mgAAAICNnj7r471sAgAAADZ65qhne9kEAAAAbPR09fFeNgEAAAAbPX2efbyXTQAAAMBGTx8Pe7aXTQAAAMA2z3f20cvDXuhlEwAAALDNx6pf/4mfPfr/JgAAAGCbp8/6jV5hAgAAALZ5uvpfvcIEAAAAbPP0oxf7jV5hAgAAADb5TGe/+eLzfbJXmAAAAIBNnjvr1/7Bvz/OXmECAAAANvlUR7/S55gAAACATT7Vo/5bn2MCAAAANvnU+bBf63NMAAAAwBaPzrPf+oqf6Zk+xwQAAABs8bCjX/7RjrPPMQEAAABbvNjZL/UqJgAAAGCLh2f9Qq9iAgAAALZ44Q31i72KCQAAANjh7Nc/8NTx272KCQAAAFjhrJ/pNUwAAADAFh/pNUwAAADABudZH+k1TAAAAMDVO+tXO/por+ESAAAAcPWOs48c9UKv4RIAAABw/Y5+7qwXew0TAAAAcO0+U/3Hy9mLvYYJAAAAuHb/86zf/MBTx9lrmAAAAIBr9586+0R/gAkAAAC4bmf/+Tj7RH+ASwAAAMA1e3j0f9qDl1jNz8Owz7/341+RI7uXwJIXWaRdJIsC2STZtoA2XXTVAkWXDVq0blpEWQQBYrRBYDl2m0BxFIlzhqRpWY5lx6I0iiy7tEmREnlmeJFsirRIURQpSiIl8Tq8DcmZ4VzO+d7EadPCjsTLcObMd855nqeH31unexOrAAAAgP3syVnP/NPjY92bWILD40L1VLXTZhnVX6x+MvazWb1cvdTm+anqLwbw5l6sXm7z/EfVB6pVAPw435mjk72FpREcFifn7Beqk22QUX++0T+o/kbsZxfn7PbqN9owY/SfV/8ggDcxZ7dUv92GGfVfNfqfq/cFwI8yq0dHPddbWJrVCA6DM2N0/Mid4/ttkL/zX8yfaulvxX63W313a3vc2ob5Ox+cP9kI4E2N2eNHjo9b2zAf+uD8S6N2A+DHea361nvf02u9hVUAAADAfvX9OXv8l28b697CKgAADr05AmB/enKue7y3YRUAAACwH12Y9e1mT/U2rAIAAAD2o+er+4/eNWZvwyoAAKgZAPvNyVFf721aBQDAoTcCYJ/ZrZ5sp+/1Nq0CAAAA9puz1X1H7hoXeptWAQAAAPvNmVn39g6sAgDg0JujGQD7ySstfa13YBUAAIfeDIB9ZM760tbt443egVUAABx6IwD2ldntvUOrAABg3QyA/eJM9ZXeoVUAAADAfvLVre3xYu/QKgAAAGA/+VyXYBUAAIfeGM0A2A9eq+7sEiwBAAAA+8Ps1urFLsEqAAAAYD/Yrb441p3uEqwCAAAA9oMfNHro2hPjQpdgCQCAQ2/WDICNNuvuOXu2S7QKAAAA2HTnq/t21r3QJVoFAMChN0YAbLbvVt/8lRNd6BKtAgCAmgGwyR4c6x6r0aVaBQAAAGyy09X9R473dO/CKgAAAGCTPdHsgRq9G6sAADj05roZAJtoXX1v1kO9S6sAAACATXV6zu7f2u6l3qVVAAAAwKZ6ofpSjd6tVQAAHHpjBMDmWc/61pw90GWwCgAAANhEb4zZvzx6fJzvMlgCAAAANs6cPXOhbu4yWQUAwKE3awbApjl24/Y43WWyCgCAQ28GwIY5O+ozXUarAAAAgE1z986673QZrQIA4NAboxkAG2HO5qzfuuaazncZrQIAAAA2xqhvjdl9c7TbZbQEh8c11V/40AfnmTbJ7H3Ve2K/G9X7PvTB+f42z38QwFv7yQ99cL6/zfNT1Qjg8JiNfmfOnjl6x+hyWuaoERwKPzPr56szbZJVS/WfxX73nuq/rH6mTTP6SwG8tf+6+ittmFF/uXpvAIfHyVl3XXi917vMljGrERwG/+Go/6YRXAnXjNFfrf5qAPvQqL/W6K8FwNV215g9duP9Y3aZrQIAAAA2welm96x3eqYrYBUAAACwCR5r9LWjd48LXQFLAAAAwNW2M2f37ez0QFfIKgAAAOBqe3LUzS+93NmukFUAAADA1bTb7MGLF7rz2COjK2UVAAAAcDWdqj53w73jbFfQKgAAAOBqenS12xe7wlYBAAAAV8t6zj798bvGK11hqwAAAICrYtbLXeym9sAqAAAA4OqY/cb77+ml9sAqAAAAYO/NXl7Pbvxwo72wCgAAANhzs25ajZ5rj6wCAAAA9trJ6ndbd7o9sgoAAADYW7NbRn1j68RYt0dWAQAAAHvpmVl/0G4n20OrAAAAgL1015jde+SusdseWgUAAADsladm3dzs6fbYKgAAAGAv7FZfHbvdeuTEmO2xVQAAAMBeeKHZzUdOjBe7ClYBAAAAV9q6erjRLV0lSwAAAMCV9sac/ebW9jjZVbIKAAAAuLJmj87ZF7qKVgEAAABX1uhjR4+P17qKlgAAAIArZs6+Vn2+q2wJAAAAuFLeGKOPVue7ypYAAACAK+WOWSe27hy7XWVLAAAAwJVwstmnVutOtgFWAQAAAFfC7dW9154YF9sAqwAAAIDL7ck5+91Rz7YhlgAAAIDL6eKsW8a6W689MXbbEKsAAACAy2VWj7TuXx45MV5vg6wCAAAALpezzW4e7+urbZglAAAA4HJ5bI4+uXXL2G3DLAEAAACXw3rOjm5tj++1gVYBAAAA79qc3TtHn21DrQIAAADerYur+vmjd47TbaglAAAA4N1Yz9mvzrqvDbYEAAAAvBvfa/apC6c73QZbBQAAAFyqc9VvterRG+8fsw22BAAAAFyqr83ZzVvbvdqGWwUAAABciheqz81136zRplsCAAAA3qndWXc3+uzRE+Nc+8AqAAAA4J16otnROXqufWIJAAAAeCfOzbppa3t8uX1kCQAAAHj7Zvev1n2sfWYVAAAA8Ha9Vv3StSfGS+0zqwAAAIC3619cU3e2D60CAAAA3o4HZn3i4uhC+9AqAAAA4K28MevoevTY0TvHbB9aBQAAALyZnVmfmrM/2Fl1oX1qCQAAAPhxZvVws5uObo/n2sdWAQAAAD/OqTm7aWfVV9rnVgEAAAA/yk6ze6rP3HDHON8+twoAAAD4UZ6rjmxtjyc7AFYBAAAAf9burOtGbXdALAHAPjfrP2n29z70wXkmuNxmPzHqrzcC4PCYs+46c6F//uv3jAsdEEsAsM+N+k8b/f0AAC6DOfvOrP/11+8Z5zpAlgAAAIB/56Ux+sVRT3TALAEAAAB/4nyzm2Z9cWt7XOiAWQIAAAD+xL1z9MmfeE8vdACtAgAAAJ5s9muzHv7l28bsAFoFAAAAh9sbzX73mvrC0TvHhQ6oVQAAAHB4refsxFz3S/9xnekAWwIAAIDD6/tz9ItHT4wXO+CWAAAA4HC60OzjR7fHPR0CqwAAAODwmc2Ordd9skNiCQAAAA6ZObu72Ueq0x0SqwAAAOBweWLUL8965OiJMTskVgEAAMDhcar657NuO3p87HSILAEAAMDhcKb65NztN7dOjHMdMqsAAADg4LtY3Tbruq0T41SH0BIAAAAcbLN6ZM4+urU9vtshtQoAAAAOttfn7JcuvN49HWKrAAAA4OCac/aRLvZ7N94/ZofYKgAAADi4PtfsE1v3jAsdcksAAABw8KyrP1qv+/D3X+75aBUAAAAcLLN6fNY/uvieHrv5GyNqFQAAABwsT1X/rNn2jV8au/FvrQIAAICD46VZ1zf73Nb2eCP+P0sAAABwMJybs9+a9Ymt7fFK/ClLAAAAcADM2e276/7x9SfGC/HvWQIAAID9bTb7452d/pcb7u75+JGWAAAAYP9az3p41t8c9VyN+NGWAAAAYH+ac/at6udmPXb93SN+vFUAAACwPz1RfWTU8eu2x068qVUAAACw/zxf3VD93pHt8Ua8pVUAAACwv5yds882+/Wt7XEq3pYlAAAA2D/Ws7441/3i1onxYrxtSwAAALA/7FR3zNnfvHim0/GOLAEAAMDmuzBn2+vR/3jd9jgd79gqAAAA2GwXmn1pzP7eNTs9G5dkFQAAAGyui822m/3CNeu+deSuMeOSrAIAAIDNtNvsnmb/aM4e+NhdYzcu2RIAAABsnjnroWb/+2r2tSMnxk68K0sAAACwYebsu2P0s7uzP946Mdbxri0BAADA5pizvjfqvz1y53goLptVAAAAsBlm9Ujr/tZ63TfisloFAAAAm+Ebc/YP56q7j54YMy6rJQAAALi6ZrOHq/+z+uLRO8f5uOyWAAAA4OqZc/atUT8/Z7dtHR9n44pYAgAAgKtl9sQc/d3WHd86Ps7HFbMEAAAAe29Wj1f/XfWNreNjxhW1BAAAAHtrt9mDY93/dO2J8VDsiVUAAACwdy7MOj5nf3vOHoo9swoAAAD2xoVmt4/Z/9Hsa0fuGuvYM0sAAABw5Z2vblvPfmHs9PWte8Zu7KklAAAAuLJ2qtua/f3di337hnvHOvbcEgAAAFw562ZfXF3Tz47dTh65d8y4KpYAAADgyjjT7A+uudj/8LHtcTauqlUAAABw+Z2cs19br/vbZ891Nq66JQAAALh8ZvXErBurTx49MV6IjbAEAAAAl8d61mNz9pHqC0e3x6nYGEsAAADw7s3qm81+btbx67bH2dgoSwAAAPDufWNd/307PXLd3WMnNs4SAAAAXLrzc/bl3frZ3Xr2xrvHjI20BAAAAJfmpeqm3dkvXX+852rE5loCAACAd2ZWTze7odknrj8+no+NtwQAAABv35z13eqjjW7a2h6vxL6wBAAAAG/fg81+Yay7/ciJcSb2jSUAAAB4e7446ud265vXnRg7sa8sAQAAwJs7W11Xffx9s6f/yfaYse8sAQAAwI+2U3232T8e6z577YnxRuxbSwAAAPDvO1fdNeujP/Hnuv2Xbxu7sa8tAQAAwJ92etZvjtkNW9vjoTgQlgAAAOD/91yzj6/W/dq1J8YLcWAsAQAAwP/j69VHZv3ekRPjTBwoSwAAABx2u83+oNH/NeqBn64LceAsAQAAcFitq+ebfXLMrp31wrXbY8aBtAQAAMBhdH7Wfc0+8v76/Q8fH+s40JYAAAA4bJ6Zdct63S9ed3x8Pw6FJQAAAA6Li9V9zT41d/rMzhudikNjCQAAgMPgVPU7s351VQ8cvXucj0NlCQAAgINsztkPR32k+vy8puev/fJYx6GzBAAAwEG12+yP5rr/bbXq0Wu3x/k4tJYAAAA4aHbn7Pnqxovv6Z/+yu3jbBx6SwAAABwkp+bsj2ZdO+tLv3L7OB/8G0sAAAAcBLvVY9Vn5uzTJ1/oO8ceGTP4fy0BAACw352b9Zlmv71ad/fRE+Ns8GcsAQAAsJ99c8625ujmo9s9VSP4UZYAAADYj85Un66un+se2d3pXI3gx1kCAABgPzk/66Ex+yfXXNOtu7M3jp4YM3gLSwAAAOwH6+oHc/a5dX30uu3xbPAOLAEAALDpTs36ylh3/fM/0+8fOzbWwTu0BAAAwKY6Xz1Ufb66aX1N3z92bMzgEiwBAACwaWazp+fo09UXRn19685xNngXlgAAANgYczYbfbbZDdU3xp/v5SO3jBm8S0sAAABsgvWsxxv9fPXFnYu9dsO9Yx1cJksAAABcTeeqJ2d9as5+9ej2eDG4ApYAAAC4GtbVE7Nurz5xevbH/2J7rIMrZAkAAIC99sqc3Tbq08tut3/srnE2uMKWAAAA2CtvVF+p/tVq9IVr7xzPBHtkCQAAgCvt4qyvj9lvVXdU3752e1wI9tASAAAAV87sB3N0baPfbfb0T9cbH94ewV5bAgAA4HLarc5WX2v2z2b94axTq/e2c+SWEVwtSwAAAFwOO9Xz1f1z3a+N2ZeOnBhngw2xBAAAwLsxq+/P2b1j9Dtzt9u3ToxXgw2zBAAAwKWY1Q+q7Tn7/WtGt3/8znEq2FBLAAAAvBOz2TPV/13duh59ddbJrTvHDDbYEgAAAG/LrGdHfXrObh71zbHTi0fvGetgH1gCAADgzayrp2b9xlj36616oZ3OHrlnrIN9ZAkAAIA/a6d6Zc4ebvSbY/T5rTvGq8E+tgQAAMC/c6F6YtYDzY5dM7rj43eOV4MDYAkAAIDXqkebfaW6eXenu6+/e5wLDpAlAACAw2ldPV3d3ewrc3Rfo69v3TnOBQfQEgAAwCEyZ7vVg42+UN3b7PHdnZ69/u5xMTjAlgAAAA6HV6o7qk9XD87Zcyc/0Oljx0ZwGCwBAAAcTDvVG82+V3161hfG6Aezzl+s9Y3bIzhMlgAAAA6OdfVa9Xyz+6rfPv96X77x/nEhOOSWAAAA9r/T1ZPV482+MuuWdT163fbYCfi3lgAAAPanC9UT1UPN7qseWNdDH9juhQ83Av60JQAAgP1jt3q6+kr11VkPj9m3n/tAPzx2bMyAH2sJAABgw806PWZ3zLq10QPVM7NOnnx/548dGwFvbQkAAGDzzOp89UD1+Tm6dcyem7PTJz/Q+WPHRsA7swQAAHB1ratz1ZnqtVn3Vl+ao+2TP90Pjx0bM+BdWwIAANh7O9WL1clmT836+hjdu7Pqnuu/PE4FXHZLAAAAe+Ns9VT1RLNvVw/O2YNj3WNbd43XA66oJQAAgCvnleqRWQ83+1b1+Jw9Pt7bE1u3jZ2APbMEAABw+Zxq9nijh+fs4erRMXpmrnt692Iv33Dv2A24KpYAAAAu0Zydqe6v7qvur7496pXq9Jy9fvR4b9QIuPqWAAAAfrzdarfaqXaqU3P2x2P01WZ/WD1cnW22s66dczvtfvKeEbB5lgAAAGpW56sz1dnqbPVa9cM5+1azR1f14Omdvv3Je8b5gH1nCQAAOGxm9Xr1SvVK9Ur18pw9NUbfWa/77qqemLMfbp0YZwIOhCUAAOCgOlO9Ur1cvVK9Ur0yZy81embMnp71zKynl9Gzf6HOffjOEXAwLQEAAPvX7Fyj56vnq5PVyWYnGz0/66VmrzZ6dcxeHfXqrNfGn+vVI7eNnYBDZQkAANg061lnq1PNXq1ONXp5zF6pXqtOVS81erY6WZ1pdnbW2ersavbGenZ2Pbp43fYI4E8ss54c9YcBAACXajbbnaOdanfUTnWx2q12Zu2M2mm2W+3M2ql2Rl2sTlcvzdFLc/bSqBdXq07Ndeeq3Wq32q12Z+2O2q12Z+3O0cVW7R798gjgrfxrFqVaVCWU1K8AAAAldEVYdGRhdGU6Y3JlYXRlADIwMjItMTItMDZUMDU6MzM6NTkrMDA6MDDSDN6HAAAAJXRFWHRkYXRlOm1vZGlmeQAyMDIyLTEyLTA2VDA1OjMzOjU5KzAwOjAwo1FmOwAAAABJRU5ErkJggg==;" vertex="1" parent="1">
          <mxGeometry x="215" y="384" width="62" height="62" as="geometry" />
        </mxCell>
        <mxCell id="u3GOakAXPToixl_BFqBM-16" value="Query" style="text;html=1;align=center;verticalAlign=middle;whiteSpace=wrap;rounded=0;" vertex="1" parent="1">
          <mxGeometry x="282" y="400" width="60" height="30" as="geometry" />
        </mxCell>
        <mxCell id="u3GOakAXPToixl_BFqBM-19" value="" style="shape=image;verticalLabelPosition=bottom;labelBackgroundColor=default;verticalAlign=top;aspect=fixed;imageAspect=0;image=data:image/png,iVBORw0KGgoAAAANSUhEUgAABAAAAAQACAYAAAB/HSuDAAAABGdBTUEAALGPC/xhBQAAACBjSFJNAAB6JgAAgIQAAPoAAACA6AAAdTAAAOpgAAA6mAAAF3CculE8AAAAB3RJTUUH5gwGBSE71w3ezgAAAAZiS0dEAAAAAAAA+UO7fwAALDVJREFUGBnswU3Mr4lZ0OHfc59/O5SWVkBKsCQEkooIColASLHtKbBwV40xMXFNAnqGQKIugQVu2FDTuvBjYYwL48qViRLTQTA0JGKihg/FgAqCBToz/ZhJp3PO4yhjMi0zJOedQt///V7XdTz53vMvn0fvCQAAANjp6L9eOrp/HD0IAAAAWOmspyYAAABgvQkAAABYbwIAAADWmwAAAID1JgAAAGC9CQAAAFhvAgAAANabAAAAgPUmAAAAYL0JAAAAWG8CAAAA1psAAACA9SYAAABgvQkAAABYbwIAAADWmwAAAID1JgAAAGC9CQAAAFhvAgAAANabAAAAgPUmAAAAYL0JAAAAWG8CAAAA1psAAACA9SYAAABgvQkAAABYbwIAAADWmwAAAID1JgAAAGC9CQAAAFhvAgAAANabAAAAgPUmAAAAYL0JAAAAWG8CAAAA1psAAACA9SYAAABgvQkAAABYbwIAAADWmwAAAID1JgAAAGC9CQAAAFhvAgAAANabAAAAgPUmAAAAYL0JAAAAWG8CAAAA1psAAACA9SYAAABgvQkAAABYbwIAAADWmwAAAID1JgAAAGC9CQAAAFhvAgAAANabAAAAgPUmAAAAYL0JAAAAWG8CAAAA1psAAACA9SYAAABgvQkAAABYbwIAAADWmwAAAID1JgAAAGC9CQAAAFhvAgAAANabAAAAgPUmAAAAYL0JAAAAWG8CAAAA1psAAACA9SYAAABgvQkAAABYbwIAAADWmwAAAID1JgAAAGC9CQAAAFhvAgAAANabAAAAgPUmAAAAYL0JAAAAWG8CAAAA1psAAACA9SYAAABgvQkAAABYbwIAAADWmwAAAID1JgAAAGC9CQAAAFhvAgAAANabAAAAgPUmAAAAYL0JAAAAWG8CAAAA1psAAACA9SYAAABgvQkAAABYbwIAAADWmwAAAID1JgAAAGC9CQAAAFhvAgAAANabAAAAgPUmAAAAYL0JAAAAWG8CAAAA1psAAACA9SYAAABgvQkAAABYbwIAAADWmwAAAID1JgAAAGC9CQAAAFhvAgAAANabAAAAgPUmAAAAYL0JAAAAWG8CAAAA1psAAACA9SYAAABgvQkAAABYbwIAAADWmwAAAID1JgAAAGC9CQAAAFhvAgAAANabAAAAgPUuwe95sXo2AABgmy+p3hh33iV4yXn2Hz701PHtAQAAqzy4f/6L4+j9cedNAAAAwHoTAAAAsN4EAAAArDcBAAAA600AAADAehMAAACw3gQAAACsNwEAAADrTQAAAMB6EwAAALDeBAAAAKw3AQAAAOtNAAAAwHoTAAAAsN4EAAAArDcBAAAA600AAADAehMAAACw3gQAAACsNwEAAADrTQAAAMB6EwAAALDeBAAAAKw3AQAAAOtNAAAAwHoTAAAAsN4EAAAArDcBAAAA600AAADAehMAAACw3gQAAACsNwEAAADrTQAAAMB6EwAAALDeBAAAAKw3AQAAAOtNAAAAwHoTAAAAsN4EAAAArDcBAAAA600AAADAehMAAACw3gQAAACsNwEAAADrTQAAAMB6EwAAALDeBAAAAKw3AQAAAOtNAAAAwHoTAAAAsN4EAAAArDcBAAAA600AAADAehMAAACw3gQAAACsNwEAAADrTQAAAMB6EwAAALDeBAAAAKw3AQAAAOtNAAAAwHoTAAAAsN4EAAAArDcBAAAA600AAADAehMAAACw3gQAAACsNwEAAADrTQAAAMB6EwAAALDeBAAAAKw3AQAAAOtNAAAAwHoTAAAAsN4EAAAArDcBAAAA600AAADAehMAAACw3gQAAACsNwEAAADrTQAAAMB6EwAAALDeBAAAAKw3AQAAAOtNAAAAwHoTAAAAsN4EAAAArDcBAAAA600AAADAehMAAACw3gQAAACsNwEAAADrTQAAAMB6EwAAALDeBAAAAKw3AQAAAOtNAAAAwHoTAAAAsN4EAAAArDcBAAAA600AAADAehMAAACw3gQAAACsNwEAAADrTQAAAMB6EwAAALDeBAAAAKw3AQAAAOtNAAAAwHoTAAAAsN4EAAAArDcBAAAA600AAADAehMAAACw3gQAAACsNwEAAADrTQAAAMB6EwAAALDeBAAAAKw3AQAAAOtNAAAAwHoTAAAAsN4EAAAArDcBAAAA600AAADAehMAAACw3gQAAACsNwEAAADrTQAAAMB6EwAAALDeBAAAAKw3AQAAAOtNAAAAwHoTAAAAsN4EAAAArDcBAAAA600AAADAehMAAACw3gQAAACsNwEAAADrTQAAAMB6EwAAALDeBAAAAKw3AQAAAOtNAAAAwHoTAAAAsN4EAAAArDcBAAAA600AAADAehMAAACw3iX4PZcH98+3B3CFjke90NnHP/jTx6Pg8+yvv+c8jqO3HEdvCuA6PRG85NIRdBy9o/qxAK7R9F+qv199Ivg8m+mLOvqLR707gOv0DXHnHXVeOqsjeHv1vQFco6Ofqv5J9Yng8+3oierd1fcGAFfqrGMCAAAA1psAAACA9SYAAABgvQkAAABYbwIAAADWmwAAAID1JgAAAGC9CQAAAFhvAgAAANabAAAAgPUmAAAAYL0JAAAAWG8CAAAA1psAAACA9SYAAABgvQkAAABYbwIAAADWmwAAAID1JgAAAGC9CQAAAFhvAgAAANabAAAAgPUmAAAAYL0JAAAAWG8CAAAA1psAAACA9SYAAABgvQkAAABYbwIAAADWmwAAAID1JgAAAGC9CQAAAFhvAgAAANabAAAAgPUuwe30dx6dfWCOuKHj7P3n0T8KAOAxnPV3j/qxuLHz7K8dRz9SfWlwi1yC2+m5v/dUv1NH3MwPvPf8REcAAI/ruQ9++PiduLEH989PVo+CW2YCAAAA1psAAACA9SYAAABgvQkAAABYbwIAAADWmwAAAID1JgAAAGC9SwC8mkfVL1Uf6e75U9V3VBNwrc7qF6uPdPd8Y/Ut1RMB8FkuAfBqHnb2kx986vjB7pgn33d+X/Wt1RsDrtXDs/7Nhz58/EB3zJP3zx/q6J3VEwHwWSYAAABgvQkAAABYbwIAAADWmwAAAID1JgAAAGC9CQAAAFhvAgAAANabAAAAgPUmAAAAYL0JAAAAWG8CAAAA1psAAACA9SYAAABgvQkAAABYbwIAAADWmwAAAID1JgAAAGC9CQAAAFhvAgAAANabAAAAgPUmAAAAYL0JAAAAWG8CAAAA1psAAACA9SYAAABgvQkAAABYbwIAAADWmwAAAID1JgAAAGC9CQAAAFhvAgAAANabAAAAgPUmAAAAYL0JAAAAWG8CAAAA1psAAACA9SYAAABgvQkAAABYbwIAAADWmwAAAID1JgAAAGC9CQAAAFhvAgAAANabAAAAgPUmAAAAYL0JAAAAWG8CAAAA1psAAACA9SYAAABgvQkAAABYbwIAAADWmwAAAID1JgAAAGC9CQAAAFhvAgAAANabAAAAgPUmAAAAYL0JAAAAWG8CAAAA1psAAACA9S4BKz06Oo94HeY8+rMP7p/f3x1znr37OLrXFTnPzoBXmqP+zIP75/d3x5z1rqOeiBs7znidjjqDW+gSsNKcHecRN3fvqPd29J3dPfeqe12R4+gIeKWp3nMcvau75151L27sPOJ1OqsjuH0uAfBapnpjANdpqjcGfCEcwS00AQAAAOtNAAAAwHoTAAAAsN4EAAAArDcBAAAA600AAADAepfgdnrT33hvX3YcZ9zYWwIAeHxvenD//LJ4Pd5cHcEtc+noDG6f75rpS+LGznpnAACP6ajv7OiH4/X409UXB7fMpbOjI7ht3lW9KwAA/qh9W/VtAetMAAAAwHoTAAAAsN4EAAAArDcBAAAA600AAADAehMAAACw3gQAAACsNwEAAADrTQAAAMB6EwAAALDeBAAAAKw3AQAAAOtNAAAAwHoTAAAAsN4EAAAArDcBAAAA600AAADAehMAAACw3gQAAACsNwEAAADrTQAAAMB6EwAAALDeBAAAAKw3AQAAAOtNAAAAwHoTAAAAsN4EAAAArDcBAAAA600AAADAehMAAACw3gQAAACsNwEAAADrTQAAAMB6EwAAALDeBAAAAKw3AQAAAOtNAAAAwHoTAAAAsN4EAAAArDcBAAAA600AAADAehMAAACw3gQAAACsNwEAAADrTQAAAMB6EwAAALDeBAAAAKw3AQAAAOtNAAAAwHoTAAAAsN4EAAAArDcBAAAA600AAADAehMAAACw3gQAAACsNwEAAADrTQAAAMB6EwAAALDeBAAAAKw3AQAAAOtNAAAAwHoTAAAAsN4EAAAArDcBAAAA600AAADAehMAAACw3gQAAACsNwEAAADrTQAAAMB6lwAAuCbPVj9fPRM3dam+tfqqAO6QSwAAXJNfO8/+5oeeOn4+buTJ++dbqn/a0fsDuEMmAAAAYL0JAAAAWG8CAOCaHEcA8PgmAAAAYL0JAAAAWG8CAAAA1psAALgmx3kEAI9tAgAAANa7BNfs7Ls6er675OxrO/qh6tsCAPjC+JXqJ6qf726Z8+yfH0fvCK7QJbhi9z7Tz33g3x2f6g558r3nJzp6NgDurOPsCL6wnjvPfuFDTx0f6Q55cP+8V306uFITAAAAsN4EAAAArDcBAAAA600AAFyT4wwAHt8EAAAArDcBAAAA600AAFyVIwB4fBMAAACw3gQAAACsdwm4KsdRZ9xCZ/Vs9Uy3zxdXbw/Y4jiPAOCxXQKuynlWR9w+L5xn//I4+sfdPn+++uEAALjTLgHw+fCo+tUPfvj4yW6ZJ++fb+0IAIA7bgIA4NocAcBjmgAAuC5nAPDYJgAAAGC9CQAAAFhvAgDgmhxHAPD4JgAArscZANzIBAAAAKw3AQBwTY4zAHh8EwAAV+MMAG5mAgAAANa7BADA1TiOAOBGJgAArs0RADymCQAAAFhvAgAAANa7BADA1TjPjgDgBiYAAABgvQkAAABY7xIAAFfjCABuZgIAAADWmwAAAID1JgAAAGC9CQCAa3IEADcwAQAAAOtNAAAAwHqXAAC4HkeddQQAj2kCAOBqnHUEADcwAQAAAOtNAABcjSMAuJlLAABcj7OOAODxTQAAAMB6EwAAALDeBADANTnOAODxTQAAXI0zALiZCQAAAFhvAgDgahxHAHAjlwD4fDiqNz+4f35lt8/bAlY5jo4A4DFdAq7KcdQZt9AbjqP3VW/r9vmaAAC48y4BV+U8qyNun3vVN1ffHAAA3EITAADX5DgDgMc3AQBwNc4A4GYmAAAAYL0JAICrcQQAN3MJAIDrcdYRADy+CQAAAFhvAgAAANabAAC4JkcAcAMTAAAAsN4luGIPL73jwf3zue6Ss6+snggA4AvnDdVXPLh/fnV3y73qElypS0dwvaYfP+phd8tbq68PgLvpqM6OuLHzqCNepz9RPTiO/mp3y9HZlwdX6tJZHcG1en93zREAd9hZR0e8DsfZ7zni5t52HL2nu+gIrtYEAAAArDcBAAAA610CAOBqHAHAzUwAAADAehMAAACw3gQAAACsdwkAgKtxnh0BwA1cAoDrd55ncCcc9eazvufB/fNr4kbO+qKO3nEEcLdcAoDrdxxHcDccfflRP1S9EDc11dsCuGMuAQBwTe5VXxYAPKYJAAAAWG8CAAAA1psAAACA9SYAAABgvQkAAABYbwIAAADWmwAAAID1JgAAAGC9CQAAAFhvAgAAANabAAAAgPUmAAAAYL0JAAAAWG8CAAAA1psAAACA9SYAAABgvQkAAABYbwIAAADWmwAAAID1JgAAAGC9CQAAAFhvAgAAANabAAAAgPUmAAAAYL0JAAAAWG8CAAAA1psAAACA9SYAAABgvQkAAABYbwIAAADWmwAAAID1JgAAAGC9CQAAAFhvAgAAANabAAAAgPUmAAAAYL0JAAAAWG8CAAAA1psAAACA9SYAAABgvQkAAABYbwIAAADWmwAAAID1JgAAAGC9CQAAAFhvAgAAANabAAAAgPUmAAAAYL0JAAAAWG8CAAAA1psAAACA9SYAAABgvQkAAABYbwIAAADWmwAAAID1JgAAAGC9CQAAAFhvAgAAANabAAAAgPUmAAAAYL0JAAAAWG8CAAAA1psAAACA9SYAAABgvQkAAABYbwIAAADWmwAAAID1JgAAAGC9CQAAAFhvAgAAANabAAAAgPUmAAAAYL0JAAAAWG8CAAAA1psAAACA9SYAAABgvUsAcOXOszPglc7qF86zj3T3fNNx9C3VEwHwWS4B8FrO6lF3z1FNV+Q4OgJe6dFZ/7b6W90xRz2o/mT1RAB8lksAvJqz+uXqZ7trzr6+o++oJuBandWLH3rq+FR3zJP3zxeqMwB+n0sAvJoXO/tXH3zq+MHumCffd35f9a3VGwMAYI0JAAAAWG8CAAAA1psAAACA9SYAAABgvQkAAABYbwIAAADWmwAAAID1JgAAAGC9CQAAAFhvAgAAANa7nEcdwX5nfayzf1Z9vFvkOHpD9ZeqrwsAeF3OOo+4hX7nPPvX1f/odnnTcfQ91TcGd8DlOKsjWO+o3+7oxz/44eO/d4s8+e7zLV36purrAgBel6OOuI3+d2f/8EM/dTzVLfLk+84/Xn1F9Y3BHTABAAAA600AAADAehMAAACw3gQAAACsNwEAAADrTQAAAMB6EwAAALDeBAAAAKw3AQAAAOtNAAAAwHoTAAAAsN4EAAAArDcBAAAA600AAADAehMAAACw3gQAAACsNwEAAADrTQAAAMB6EwAAALDeBAAAAKw3AQAAAOtNAAAAwHoTAAAAsN4EAAAArDcBAAAA600AAADAehMAAACw3gQAAACsNwEAAADrTQAAAMB6EwAAALDeBAAAAKw3AQAAAOtNAAAAwHoTAAAAsN4EAAAArHc5jzqC/c56W2d/5cH983e7XZ6o3hEA8LqddR5xC/2xjv7Cg/vn13aLnGdvOY6+LrgjLsdZHcF6R729ox+pHnX7fHEAwOt21BG30VcdRw+qh90uR/VFwR1xCe6Oqd4SAAB/1KZ6c8AX1AQAAACsNwEAAADrTQAAAMB6EwAAALDeBAAAAKw3AQAAAOtNAAAAwHqXAAB4bWcdR9fmqL76yfed393d887qDQHw+1wCgOt3nmfwh+LoJWd1dE3uHfXd1bd097ytenMA/D6XAHg19zr69iffd/7t7pqz7+joXtflOI7gD8V59P8cXZ23Vm8NAF52CYBXM9Wfq76hu+boiepeAACscgmA1/LG6o0BAMACEwAAALDeBAAAAKw3AQAAAOtNAAAAwHoTAAAAsN4EAAAArDcBAAAA600AAADAehMAAACw3gQAAACsNwEAAADrTQAAAMB6EwAAALDeBAAAAKw3AQAAAOtNAAAAwHoTAAAAsN4EAAAArDcBAAAA600AAADAehMAAACw3gQAAACsNwEAAADrTQAAAMB6EwAAALDeBAAAAKw3AQAAAOtNAAAAwG5nDycAAABgu89MAAAAwG5Hn54AAACA1Y6zFyYAAABgtfPohQkAAADY7tMTAAAAsNpx9sIEAAAA7Hb06QkAAADY7eyFCQAAANjuhQkAAABY7axPTwAAAMB2L0wAAADAakd9egIAAABWO+uFCQAAANjt6PkJAAAAWO2oZycAAABgtfPsYxMAAACw29nHJgAAAGCzzxzTJy8BAAAAa531dPXiJQAAAGCto57t7OEEAAAAbPZMRw8nAAAAYLNnO3s0AQAAAHudPVM9vAQAAADsdfTsWQ8vAQAAAGudZ09XDycAAABgs2fPs4eXAAAAgLWOeqZ6OAEAAACbPXuvHk0AAADAXke/ezzqxQkAAADY6pNnffIDP32cEwAAALDVR496vpdMAAAAwFa/ddaneskEAAAArHTWb1fP95IJAAAAWOmoj1bP9ZIJAAAA2OqjPer5XjIBAAAAO5199N6jnuslEwAAALDRc2c986X3erGXTAAAAMBGHzvqmR996uj/mgAAAICNnj7r471sAgAAADZ65qhne9kEAAAAbPR09fFeNgEAAAAbPX2efbyXTQAAAMBGTx8Pe7aXTQAAAMA2z3f20cvDXuhlEwAAALDNx6pf/4mfPfr/JgAAAGCbp8/6jV5hAgAAALZ5uvpfvcIEAAAAbPP0oxf7jV5hAgAAADb5TGe/+eLzfbJXmAAAAIBNnjvr1/7Bvz/OXmECAAAANvlUR7/S55gAAACATT7Vo/5bn2MCAAAANvnU+bBf63NMAAAAwBaPzrPf+oqf6Zk+xwQAAABs8bCjX/7RjrPPMQEAAABbvNjZL/UqJgAAAGCLh2f9Qq9iAgAAALZ44Q31i72KCQAAANjh7Nc/8NTx272KCQAAAFjhrJ/pNUwAAADAFh/pNUwAAADABudZH+k1TAAAAMDVO+tXO/por+ESAAAAcPWOs48c9UKv4RIAAABw/Y5+7qwXew0TAAAAcO0+U/3Hy9mLvYYJAAAAuHb/86zf/MBTx9lrmAAAAIBr9586+0R/gAkAAAC4bmf/+Tj7RH+ASwAAAMA1e3j0f9qDl1jNz8Owz7/341+RI7uXwJIXWaRdJIsC2STZtoA2XXTVAkWXDVq0blpEWQQBYrRBYDl2m0BxFIlzhqRpWY5lx6I0iiy7tEmREnlmeJFsirRIURQpSiIl8Tq8DcmZ4VzO+d7EadPCjsTLcObMd855nqeH31unexOrAAAAgP3syVnP/NPjY92bWILD40L1VLXTZhnVX6x+MvazWb1cvdTm+anqLwbw5l6sXm7z/EfVB6pVAPw435mjk72FpREcFifn7Beqk22QUX++0T+o/kbsZxfn7PbqN9owY/SfV/8ggDcxZ7dUv92GGfVfNfqfq/cFwI8yq0dHPddbWJrVCA6DM2N0/Mid4/ttkL/zX8yfaulvxX63W313a3vc2ob5Ox+cP9kI4E2N2eNHjo9b2zAf+uD8S6N2A+DHea361nvf02u9hVUAAADAfvX9OXv8l28b697CKgAADr05AmB/enKue7y3YRUAAACwH12Y9e1mT/U2rAIAAAD2o+er+4/eNWZvwyoAAKgZAPvNyVFf721aBQDAoTcCYJ/ZrZ5sp+/1Nq0CAAAA9puz1X1H7hoXeptWAQAAAPvNmVn39g6sAgDg0JujGQD7ySstfa13YBUAAIfeDIB9ZM760tbt443egVUAABx6IwD2ldntvUOrAABg3QyA/eJM9ZXeoVUAAADAfvLVre3xYu/QKgAAAGA/+VyXYBUAAIfeGM0A2A9eq+7sEiwBAAAA+8Ps1urFLsEqAAAAYD/Yrb441p3uEqwCAAAA9oMfNHro2hPjQpdgCQCAQ2/WDICNNuvuOXu2S7QKAAAA2HTnq/t21r3QJVoFAMChN0YAbLbvVt/8lRNd6BKtAgCAmgGwyR4c6x6r0aVaBQAAAGyy09X9R473dO/CKgAAAGCTPdHsgRq9G6sAADj05roZAJtoXX1v1kO9S6sAAACATXV6zu7f2u6l3qVVAAAAwKZ6ofpSjd6tVQAAHHpjBMDmWc/61pw90GWwCgAAANhEb4zZvzx6fJzvMlgCAAAANs6cPXOhbu4yWQUAwKE3awbApjl24/Y43WWyCgCAQ28GwIY5O+ozXUarAAAAgE1z986673QZrQIA4NAboxkAG2HO5qzfuuaazncZrQIAAAA2xqhvjdl9c7TbZbQEh8c11V/40AfnmTbJ7H3Ve2K/G9X7PvTB+f42z38QwFv7yQ99cL6/zfNT1Qjg8JiNfmfOnjl6x+hyWuaoERwKPzPr56szbZJVS/WfxX73nuq/rH6mTTP6SwG8tf+6+ittmFF/uXpvAIfHyVl3XXi917vMljGrERwG/+Go/6YRXAnXjNFfrf5qAPvQqL/W6K8FwNV215g9duP9Y3aZrQIAAAA2welm96x3eqYrYBUAAACwCR5r9LWjd48LXQFLAAAAwNW2M2f37ez0QFfIKgAAAOBqe3LUzS+93NmukFUAAADA1bTb7MGLF7rz2COjK2UVAAAAcDWdqj53w73jbFfQKgAAAOBqenS12xe7wlYBAAAAV8t6zj798bvGK11hqwAAAICrYtbLXeym9sAqAAAA4OqY/cb77+ml9sAqAAAAYO/NXl7Pbvxwo72wCgAAANhzs25ajZ5rj6wCAAAA9trJ6ndbd7o9sgoAAADYW7NbRn1j68RYt0dWAQAAAHvpmVl/0G4n20OrAAAAgL1015jde+SusdseWgUAAADsladm3dzs6fbYKgAAAGAv7FZfHbvdeuTEmO2xVQAAAMBeeKHZzUdOjBe7ClYBAAAAV9q6erjRLV0lSwAAAMCV9sac/ebW9jjZVbIKAAAAuLJmj87ZF7qKVgEAAABX1uhjR4+P17qKlgAAAIArZs6+Vn2+q2wJAAAAuFLeGKOPVue7ypYAAACAK+WOWSe27hy7XWVLAAAAwJVwstmnVutOtgFWAQAAAFfC7dW9154YF9sAqwAAAIDL7ck5+91Rz7YhlgAAAIDL6eKsW8a6W689MXbbEKsAAACAy2VWj7TuXx45MV5vg6wCAAAALpezzW4e7+urbZglAAAA4HJ5bI4+uXXL2G3DLAEAAACXw3rOjm5tj++1gVYBAAAA79qc3TtHn21DrQIAAADerYur+vmjd47TbaglAAAA4N1Yz9mvzrqvDbYEAAAAvBvfa/apC6c73QZbBQAAAFyqc9VvterRG+8fsw22BAAAAFyqr83ZzVvbvdqGWwUAAABciheqz81136zRplsCAAAA3qndWXc3+uzRE+Nc+8AqAAAA4J16otnROXqufWIJAAAAeCfOzbppa3t8uX1kCQAAAHj7Zvev1n2sfWYVAAAA8Ha9Vv3StSfGS+0zqwAAAIC3619cU3e2D60CAAAA3o4HZn3i4uhC+9AqAAAA4K28MevoevTY0TvHbB9aBQAAALyZnVmfmrM/2Fl1oX1qCQAAAPhxZvVws5uObo/n2sdWAQAAAD/OqTm7aWfVV9rnVgEAAAA/yk6ze6rP3HDHON8+twoAAAD4UZ6rjmxtjyc7AFYBAAAAf9burOtGbXdALAHAPjfrP2n29z70wXkmuNxmPzHqrzcC4PCYs+46c6F//uv3jAsdEEsAsM+N+k8b/f0AAC6DOfvOrP/11+8Z5zpAlgAAAIB/56Ux+sVRT3TALAEAAAB/4nyzm2Z9cWt7XOiAWQIAAAD+xL1z9MmfeE8vdACtAgAAAJ5s9muzHv7l28bsAFoFAAAAh9sbzX73mvrC0TvHhQ6oVQAAAHB4refsxFz3S/9xnekAWwIAAIDD6/tz9ItHT4wXO+CWAAAA4HC60OzjR7fHPR0CqwAAAODwmc2Ordd9skNiCQAAAA6ZObu72Ueq0x0SqwAAAOBweWLUL8965OiJMTskVgEAAMDhcar657NuO3p87HSILAEAAMDhcKb65NztN7dOjHMdMqsAAADg4LtY3Tbruq0T41SH0BIAAAAcbLN6ZM4+urU9vtshtQoAAAAOttfn7JcuvN49HWKrAAAA4OCac/aRLvZ7N94/ZofYKgAAADi4PtfsE1v3jAsdcksAAABw8KyrP1qv+/D3X+75aBUAAAAcLLN6fNY/uvieHrv5GyNqFQAAABwsT1X/rNn2jV8au/FvrQIAAICD46VZ1zf73Nb2eCP+P0sAAABwMJybs9+a9Ymt7fFK/ClLAAAAcADM2e276/7x9SfGC/HvWQIAAID9bTb7452d/pcb7u75+JGWAAAAYP9az3p41t8c9VyN+NGWAAAAYH+ac/at6udmPXb93SN+vFUAAACwPz1RfWTU8eu2x068qVUAAACw/zxf3VD93pHt8Ua8pVUAAACwv5yds882+/Wt7XEq3pYlAAAA2D/Ws7441/3i1onxYrxtSwAAALA/7FR3zNnfvHim0/GOLAEAAMDmuzBn2+vR/3jd9jgd79gqAAAA2GwXmn1pzP7eNTs9G5dkFQAAAGyui822m/3CNeu+deSuMeOSrAIAAIDNtNvsnmb/aM4e+NhdYzcu2RIAAABsnjnroWb/+2r2tSMnxk68K0sAAACwYebsu2P0s7uzP946Mdbxri0BAADA5pizvjfqvz1y53goLptVAAAAsBlm9Ujr/tZ63TfisloFAAAAm+Ebc/YP56q7j54YMy6rJQAAALi6ZrOHq/+z+uLRO8f5uOyWAAAA4OqZc/atUT8/Z7dtHR9n44pYAgAAgKtl9sQc/d3WHd86Ps7HFbMEAAAAe29Wj1f/XfWNreNjxhW1BAAAAHtrt9mDY93/dO2J8VDsiVUAAACwdy7MOj5nf3vOHoo9swoAAAD2xoVmt4/Z/9Hsa0fuGuvYM0sAAABw5Z2vblvPfmHs9PWte8Zu7KklAAAAuLJ2qtua/f3di337hnvHOvbcEgAAAFw562ZfXF3Tz47dTh65d8y4KpYAAADgyjjT7A+uudj/8LHtcTauqlUAAABw+Z2cs19br/vbZ891Nq66JQAAALh8ZvXErBurTx49MV6IjbAEAAAAl8d61mNz9pHqC0e3x6nYGEsAAADw7s3qm81+btbx67bH2dgoSwAAAPDufWNd/307PXLd3WMnNs4SAAAAXLrzc/bl3frZ3Xr2xrvHjI20BAAAAJfmpeqm3dkvXX+852rE5loCAACAd2ZWTze7odknrj8+no+NtwQAAABv35z13eqjjW7a2h6vxL6wBAAAAG/fg81+Yay7/ciJcSb2jSUAAAB4e7446ud265vXnRg7sa8sAQAAwJs7W11Xffx9s6f/yfaYse8sAQAAwI+2U3232T8e6z577YnxRuxbSwAAAPDvO1fdNeujP/Hnuv2Xbxu7sa8tAQAAwJ92etZvjtkNW9vjoTgQlgAAAOD/91yzj6/W/dq1J8YLcWAsAQAAwP/j69VHZv3ekRPjTBwoSwAAABx2u83+oNH/NeqBn64LceAsAQAAcFitq+ebfXLMrp31wrXbY8aBtAQAAMBhdH7Wfc0+8v76/Q8fH+s40JYAAAA4bJ6Zdct63S9ed3x8Pw6FJQAAAA6Li9V9zT41d/rMzhudikNjCQAAgMPgVPU7s351VQ8cvXucj0NlCQAAgINsztkPR32k+vy8puev/fJYx6GzBAAAwEG12+yP5rr/bbXq0Wu3x/k4tJYAAAA4aHbn7Pnqxovv6Z/+yu3jbBx6SwAAABwkp+bsj2ZdO+tLv3L7OB/8G0sAAAAcBLvVY9Vn5uzTJ1/oO8ceGTP4fy0BAACw352b9Zlmv71ad/fRE+Ns8GcsAQAAsJ99c8625ujmo9s9VSP4UZYAAADYj85Un66un+se2d3pXI3gx1kCAABgPzk/66Ex+yfXXNOtu7M3jp4YM3gLSwAAAOwH6+oHc/a5dX30uu3xbPAOLAEAALDpTs36ylh3/fM/0+8fOzbWwTu0BAAAwKY6Xz1Ufb66aX1N3z92bMzgEiwBAACwaWazp+fo09UXRn19685xNngXlgAAANgYczYbfbbZDdU3xp/v5SO3jBm8S0sAAABsgvWsxxv9fPXFnYu9dsO9Yx1cJksAAABcTeeqJ2d9as5+9ej2eDG4ApYAAAC4GtbVE7Nurz5xevbH/2J7rIMrZAkAAIC99sqc3Tbq08tut3/srnE2uMKWAAAA2CtvVF+p/tVq9IVr7xzPBHtkCQAAgCvt4qyvj9lvVXdU3752e1wI9tASAAAAV87sB3N0baPfbfb0T9cbH94ewV5bAgAA4HLarc5WX2v2z2b94axTq/e2c+SWEVwtSwAAAFwOO9Xz1f1z3a+N2ZeOnBhngw2xBAAAwLsxq+/P2b1j9Dtzt9u3ToxXgw2zBAAAwKWY1Q+q7Tn7/WtGt3/8znEq2FBLAAAAvBOz2TPV/13duh59ddbJrTvHDDbYEgAAAG/LrGdHfXrObh71zbHTi0fvGetgH1gCAADgzayrp2b9xlj36616oZ3OHrlnrIN9ZAkAAIA/a6d6Zc4ebvSbY/T5rTvGq8E+tgQAAMC/c6F6YtYDzY5dM7rj43eOV4MDYAkAAIDXqkebfaW6eXenu6+/e5wLDpAlAACAw2ldPV3d3ewrc3Rfo69v3TnOBQfQEgAAwCEyZ7vVg42+UN3b7PHdnZ69/u5xMTjAlgAAAA6HV6o7qk9XD87Zcyc/0Oljx0ZwGCwBAAAcTDvVG82+V3161hfG6Aezzl+s9Y3bIzhMlgAAAA6OdfVa9Xyz+6rfPv96X77x/nEhOOSWAAAA9r/T1ZPV482+MuuWdT163fbYCfi3lgAAAPanC9UT1UPN7qseWNdDH9juhQ83Av60JQAAgP1jt3q6+kr11VkPj9m3n/tAPzx2bMyAH2sJAABgw806PWZ3zLq10QPVM7NOnnx/548dGwFvbQkAAGDzzOp89UD1+Tm6dcyem7PTJz/Q+WPHRsA7swQAAHB1ratz1ZnqtVn3Vl+ao+2TP90Pjx0bM+BdWwIAANh7O9WL1clmT836+hjdu7Pqnuu/PE4FXHZLAAAAe+Ns9VT1RLNvVw/O2YNj3WNbd43XA66oJQAAgCvnleqRWQ83+1b1+Jw9Pt7bE1u3jZ2APbMEAABw+Zxq9nijh+fs4erRMXpmrnt692Iv33Dv2A24KpYAAAAu0Zydqe6v7qvur7496pXq9Jy9fvR4b9QIuPqWAAAAfrzdarfaqXaqU3P2x2P01WZ/WD1cnW22s66dczvtfvKeEbB5lgAAAGpW56sz1dnqbPVa9cM5+1azR1f14Omdvv3Je8b5gH1nCQAAOGxm9Xr1SvVK9Ur18pw9NUbfWa/77qqemLMfbp0YZwIOhCUAAOCgOlO9Ur1cvVK9Ur0yZy81embMnp71zKynl9Gzf6HOffjOEXAwLQEAAPvX7Fyj56vnq5PVyWYnGz0/66VmrzZ6dcxeHfXqrNfGn+vVI7eNnYBDZQkAANg061lnq1PNXq1ONXp5zF6pXqtOVS81erY6WZ1pdnbW2ersavbGenZ2Pbp43fYI4E8ss54c9YcBAACXajbbnaOdanfUTnWx2q12Zu2M2mm2W+3M2ql2Rl2sTlcvzdFLc/bSqBdXq07Ndeeq3Wq32q12Z+2O2q12Z+3O0cVW7R798gjgrfxrFqVaVCWU1K8AAAAldEVYdGRhdGU6Y3JlYXRlADIwMjItMTItMDZUMDU6MzM6NTkrMDA6MDDSDN6HAAAAJXRFWHRkYXRlOm1vZGlmeQAyMDIyLTEyLTA2VDA1OjMzOjU5KzAwOjAwo1FmOwAAAABJRU5ErkJggg==;" vertex="1" parent="1">
          <mxGeometry x="835" y="383" width="62" height="62" as="geometry" />
        </mxCell>
        <mxCell id="u3GOakAXPToixl_BFqBM-20" value="" style="shape=image;verticalLabelPosition=bottom;labelBackgroundColor=default;verticalAlign=top;aspect=fixed;imageAspect=0;image=data:image/png,iVBORw0KGgoAAAANSUhEUgAABAAAAAQACAYAAAB/HSuDAAAABGdBTUEAALGPC/xhBQAAACBjSFJNAAB6JgAAgIQAAPoAAACA6AAAdTAAAOpgAAA6mAAAF3CculE8AAAAB3RJTUUH5gwGBSE71w3ezgAAAAZiS0dEAAAAAAAA+UO7fwAALDVJREFUGBnswU3Mr4lZ0OHfc59/O5SWVkBKsCQEkooIColASLHtKbBwV40xMXFNAnqGQKIugQVu2FDTuvBjYYwL48qViRLTQTA0JGKihg/FgAqCBToz/ZhJp3PO4yhjMi0zJOedQt///V7XdTz53vMvn0fvCQAAANjp6L9eOrp/HD0IAAAAWOmspyYAAABgvQkAAABYbwIAAADWmwAAAID1JgAAAGC9CQAAAFhvAgAAANabAAAAgPUmAAAAYL0JAAAAWG8CAAAA1psAAACA9SYAAABgvQkAAABYbwIAAADWmwAAAID1JgAAAGC9CQAAAFhvAgAAANabAAAAgPUmAAAAYL0JAAAAWG8CAAAA1psAAACA9SYAAABgvQkAAABYbwIAAADWmwAAAID1JgAAAGC9CQAAAFhvAgAAANabAAAAgPUmAAAAYL0JAAAAWG8CAAAA1psAAACA9SYAAABgvQkAAABYbwIAAADWmwAAAID1JgAAAGC9CQAAAFhvAgAAANabAAAAgPUmAAAAYL0JAAAAWG8CAAAA1psAAACA9SYAAABgvQkAAABYbwIAAADWmwAAAID1JgAAAGC9CQAAAFhvAgAAANabAAAAgPUmAAAAYL0JAAAAWG8CAAAA1psAAACA9SYAAABgvQkAAABYbwIAAADWmwAAAID1JgAAAGC9CQAAAFhvAgAAANabAAAAgPUmAAAAYL0JAAAAWG8CAAAA1psAAACA9SYAAABgvQkAAABYbwIAAADWmwAAAID1JgAAAGC9CQAAAFhvAgAAANabAAAAgPUmAAAAYL0JAAAAWG8CAAAA1psAAACA9SYAAABgvQkAAABYbwIAAADWmwAAAID1JgAAAGC9CQAAAFhvAgAAANabAAAAgPUmAAAAYL0JAAAAWG8CAAAA1psAAACA9SYAAABgvQkAAABYbwIAAADWmwAAAID1JgAAAGC9CQAAAFhvAgAAANabAAAAgPUmAAAAYL0JAAAAWG8CAAAA1psAAACA9SYAAABgvQkAAABYbwIAAADWmwAAAID1JgAAAGC9CQAAAFhvAgAAANabAAAAgPUmAAAAYL0JAAAAWG8CAAAA1psAAACA9SYAAABgvQkAAABYbwIAAADWmwAAAID1JgAAAGC9CQAAAFhvAgAAANabAAAAgPUuwe95sXo2AABgmy+p3hh33iV4yXn2Hz701PHtAQAAqzy4f/6L4+j9cedNAAAAwHoTAAAAsN4EAAAArDcBAAAA600AAADAehMAAACw3gQAAACsNwEAAADrTQAAAMB6EwAAALDeBAAAAKw3AQAAAOtNAAAAwHoTAAAAsN4EAAAArDcBAAAA600AAADAehMAAACw3gQAAACsNwEAAADrTQAAAMB6EwAAALDeBAAAAKw3AQAAAOtNAAAAwHoTAAAAsN4EAAAArDcBAAAA600AAADAehMAAACw3gQAAACsNwEAAADrTQAAAMB6EwAAALDeBAAAAKw3AQAAAOtNAAAAwHoTAAAAsN4EAAAArDcBAAAA600AAADAehMAAACw3gQAAACsNwEAAADrTQAAAMB6EwAAALDeBAAAAKw3AQAAAOtNAAAAwHoTAAAAsN4EAAAArDcBAAAA600AAADAehMAAACw3gQAAACsNwEAAADrTQAAAMB6EwAAALDeBAAAAKw3AQAAAOtNAAAAwHoTAAAAsN4EAAAArDcBAAAA600AAADAehMAAACw3gQAAACsNwEAAADrTQAAAMB6EwAAALDeBAAAAKw3AQAAAOtNAAAAwHoTAAAAsN4EAAAArDcBAAAA600AAADAehMAAACw3gQAAACsNwEAAADrTQAAAMB6EwAAALDeBAAAAKw3AQAAAOtNAAAAwHoTAAAAsN4EAAAArDcBAAAA600AAADAehMAAACw3gQAAACsNwEAAADrTQAAAMB6EwAAALDeBAAAAKw3AQAAAOtNAAAAwHoTAAAAsN4EAAAArDcBAAAA600AAADAehMAAACw3gQAAACsNwEAAADrTQAAAMB6EwAAALDeBAAAAKw3AQAAAOtNAAAAwHoTAAAAsN4EAAAArDcBAAAA600AAADAehMAAACw3gQAAACsNwEAAADrTQAAAMB6EwAAALDeBAAAAKw3AQAAAOtNAAAAwHoTAAAAsN4EAAAArDcBAAAA600AAADAehMAAACw3gQAAACsNwEAAADrTQAAAMB6EwAAALDeBAAAAKw3AQAAAOtNAAAAwHoTAAAAsN4EAAAArDcBAAAA600AAADAehMAAACw3gQAAACsNwEAAADrTQAAAMB6EwAAALDeBAAAAKw3AQAAAOtNAAAAwHoTAAAAsN4EAAAArDcBAAAA600AAADAehMAAACw3iX4PZcH98+3B3CFjke90NnHP/jTx6Pg8+yvv+c8jqO3HEdvCuA6PRG85NIRdBy9o/qxAK7R9F+qv199Ivg8m+mLOvqLR707gOv0DXHnHXVeOqsjeHv1vQFco6Ofqv5J9Yng8+3oierd1fcGAFfqrGMCAAAA1psAAACA9SYAAABgvQkAAABYbwIAAADWmwAAAID1JgAAAGC9CQAAAFhvAgAAANabAAAAgPUmAAAAYL0JAAAAWG8CAAAA1psAAACA9SYAAABgvQkAAABYbwIAAADWmwAAAID1JgAAAGC9CQAAAFhvAgAAANabAAAAgPUmAAAAYL0JAAAAWG8CAAAA1psAAACA9SYAAABgvQkAAABYbwIAAADWmwAAAID1JgAAAGC9CQAAAFhvAgAAANabAAAAgPUuwe30dx6dfWCOuKHj7P3n0T8KAOAxnPV3j/qxuLHz7K8dRz9SfWlwi1yC2+m5v/dUv1NH3MwPvPf8REcAAI/ruQ9++PiduLEH989PVo+CW2YCAAAA1psAAACA9SYAAABgvQkAAABYbwIAAADWmwAAAID1JgAAAGC9SwC8mkfVL1Uf6e75U9V3VBNwrc7qF6uPdPd8Y/Ut1RMB8FkuAfBqHnb2kx986vjB7pgn33d+X/Wt1RsDrtXDs/7Nhz58/EB3zJP3zx/q6J3VEwHwWSYAAABgvQkAAABYbwIAAADWmwAAAID1JgAAAGC9CQAAAFhvAgAAANabAAAAgPUmAAAAYL0JAAAAWG8CAAAA1psAAACA9SYAAABgvQkAAABYbwIAAADWmwAAAID1JgAAAGC9CQAAAFhvAgAAANabAAAAgPUmAAAAYL0JAAAAWG8CAAAA1psAAACA9SYAAABgvQkAAABYbwIAAADWmwAAAID1JgAAAGC9CQAAAFhvAgAAANabAAAAgPUmAAAAYL0JAAAAWG8CAAAA1psAAACA9SYAAABgvQkAAABYbwIAAADWmwAAAID1JgAAAGC9CQAAAFhvAgAAANabAAAAgPUmAAAAYL0JAAAAWG8CAAAA1psAAACA9SYAAABgvQkAAABYbwIAAADWmwAAAID1JgAAAGC9CQAAAFhvAgAAANabAAAAgPUmAAAAYL0JAAAAWG8CAAAA1psAAACA9S4BKz06Oo94HeY8+rMP7p/f3x1znr37OLrXFTnPzoBXmqP+zIP75/d3x5z1rqOeiBs7znidjjqDW+gSsNKcHecRN3fvqPd29J3dPfeqe12R4+gIeKWp3nMcvau75151L27sPOJ1OqsjuH0uAfBapnpjANdpqjcGfCEcwS00AQAAAOtNAAAAwHoTAAAAsN4EAAAArDcBAAAA600AAADAepfgdnrT33hvX3YcZ9zYWwIAeHxvenD//LJ4Pd5cHcEtc+noDG6f75rpS+LGznpnAACP6ajv7OiH4/X409UXB7fMpbOjI7ht3lW9KwAA/qh9W/VtAetMAAAAwHoTAAAAsN4EAAAArDcBAAAA600AAADAehMAAACw3gQAAACsNwEAAADrTQAAAMB6EwAAALDeBAAAAKw3AQAAAOtNAAAAwHoTAAAAsN4EAAAArDcBAAAA600AAADAehMAAACw3gQAAACsNwEAAADrTQAAAMB6EwAAALDeBAAAAKw3AQAAAOtNAAAAwHoTAAAAsN4EAAAArDcBAAAA600AAADAehMAAACw3gQAAACsNwEAAADrTQAAAMB6EwAAALDeBAAAAKw3AQAAAOtNAAAAwHoTAAAAsN4EAAAArDcBAAAA600AAADAehMAAACw3gQAAACsNwEAAADrTQAAAMB6EwAAALDeBAAAAKw3AQAAAOtNAAAAwHoTAAAAsN4EAAAArDcBAAAA600AAADAehMAAACw3gQAAACsNwEAAADrTQAAAMB6EwAAALDeBAAAAKw3AQAAAOtNAAAAwHoTAAAAsN4EAAAArDcBAAAA600AAADAehMAAACw3gQAAACsNwEAAADrTQAAAMB6lwAAuCbPVj9fPRM3dam+tfqqAO6QSwAAXJNfO8/+5oeeOn4+buTJ++dbqn/a0fsDuEMmAAAAYL0JAAAAWG8CAOCaHEcA8PgmAAAAYL0JAAAAWG8CAAAA1psAALgmx3kEAI9tAgAAANa7BNfs7Ls6er675OxrO/qh6tsCAPjC+JXqJ6qf726Z8+yfH0fvCK7QJbhi9z7Tz33g3x2f6g558r3nJzp6NgDurOPsCL6wnjvPfuFDTx0f6Q55cP+8V306uFITAAAAsN4EAAAArDcBAAAA600AAFyT4wwAHt8EAAAArDcBAAAA600AAFyVIwB4fBMAAACw3gQAAACsdwm4KsdRZ9xCZ/Vs9Uy3zxdXbw/Y4jiPAOCxXQKuynlWR9w+L5xn//I4+sfdPn+++uEAALjTLgHw+fCo+tUPfvj4yW6ZJ++fb+0IAIA7bgIA4NocAcBjmgAAuC5nAPDYJgAAAGC9CQAAAFhvAgDgmhxHAPD4JgAArscZANzIBAAAAKw3AQBwTY4zAHh8EwAAV+MMAG5mAgAAANa7BADA1TiOAOBGJgAArs0RADymCQAAAFhvAgAAANa7BADA1TjPjgDgBiYAAABgvQkAAABY7xIAAFfjCABuZgIAAADWmwAAAID1JgAAAGC9CQCAa3IEADcwAQAAAOtNAAAAwHqXAAC4HkeddQQAj2kCAOBqnHUEADcwAQAAAOtNAABcjSMAuJlLAABcj7OOAODxTQAAAMB6EwAAALDeBADANTnOAODxTQAAXI0zALiZCQAAAFhvAgDgahxHAHAjlwD4fDiqNz+4f35lt8/bAlY5jo4A4DFdAq7KcdQZt9AbjqP3VW/r9vmaAAC48y4BV+U8qyNun3vVN1ffHAAA3EITAADX5DgDgMc3AQBwNc4A4GYmAAAAYL0JAICrcQQAN3MJAIDrcdYRADy+CQAAAFhvAgAAANabAAC4JkcAcAMTAAAAsN4luGIPL73jwf3zue6Ss6+snggA4AvnDdVXPLh/fnV3y73qElypS0dwvaYfP+phd8tbq68PgLvpqM6OuLHzqCNepz9RPTiO/mp3y9HZlwdX6tJZHcG1en93zREAd9hZR0e8DsfZ7zni5t52HL2nu+gIrtYEAAAArDcBAAAA610CAOBqHAHAzUwAAADAehMAAACw3gQAAACsdwkAgKtxnh0BwA1cAoDrd55ncCcc9eazvufB/fNr4kbO+qKO3nEEcLdcAoDrdxxHcDccfflRP1S9EDc11dsCuGMuAQBwTe5VXxYAPKYJAAAAWG8CAAAA1psAAACA9SYAAABgvQkAAABYbwIAAADWmwAAAID1JgAAAGC9CQAAAFhvAgAAANabAAAAgPUmAAAAYL0JAAAAWG8CAAAA1psAAACA9SYAAABgvQkAAABYbwIAAADWmwAAAID1JgAAAGC9CQAAAFhvAgAAANabAAAAgPUmAAAAYL0JAAAAWG8CAAAA1psAAACA9SYAAABgvQkAAABYbwIAAADWmwAAAID1JgAAAGC9CQAAAFhvAgAAANabAAAAgPUmAAAAYL0JAAAAWG8CAAAA1psAAACA9SYAAABgvQkAAABYbwIAAADWmwAAAID1JgAAAGC9CQAAAFhvAgAAANabAAAAgPUmAAAAYL0JAAAAWG8CAAAA1psAAACA9SYAAABgvQkAAABYbwIAAADWmwAAAID1JgAAAGC9CQAAAFhvAgAAANabAAAAgPUmAAAAYL0JAAAAWG8CAAAA1psAAACA9SYAAABgvQkAAABYbwIAAADWmwAAAID1JgAAAGC9CQAAAFhvAgAAANabAAAAgPUmAAAAYL0JAAAAWG8CAAAA1psAAACA9SYAAABgvUsAcOXOszPglc7qF86zj3T3fNNx9C3VEwHwWS4B8FrO6lF3z1FNV+Q4OgJe6dFZ/7b6W90xRz2o/mT1RAB8lksAvJqz+uXqZ7trzr6+o++oJuBandWLH3rq+FR3zJP3zxeqMwB+n0sAvJoXO/tXH3zq+MHumCffd35f9a3VGwMAYI0JAAAAWG8CAAAA1psAAACA9SYAAABgvQkAAABYbwIAAADWmwAAAID1JgAAAGC9CQAAAFhvAgAAANa7nEcdwX5nfayzf1Z9vFvkOHpD9ZeqrwsAeF3OOo+4hX7nPPvX1f/odnnTcfQ91TcGd8DlOKsjWO+o3+7oxz/44eO/d4s8+e7zLV36purrAgBel6OOuI3+d2f/8EM/dTzVLfLk+84/Xn1F9Y3BHTABAAAA600AAADAehMAAACw3gQAAACsNwEAAADrTQAAAMB6EwAAALDeBAAAAKw3AQAAAOtNAAAAwHoTAAAAsN4EAAAArDcBAAAA600AAADAehMAAACw3gQAAACsNwEAAADrTQAAAMB6EwAAALDeBAAAAKw3AQAAAOtNAAAAwHoTAAAAsN4EAAAArDcBAAAA600AAADAehMAAACw3gQAAACsNwEAAADrTQAAAMB6EwAAALDeBAAAAKw3AQAAAOtNAAAAwHoTAAAAsN4EAAAArHc5jzqC/c56W2d/5cH983e7XZ6o3hEA8LqddR5xC/2xjv7Cg/vn13aLnGdvOY6+LrgjLsdZHcF6R729ox+pHnX7fHEAwOt21BG30VcdRw+qh90uR/VFwR1xCe6Oqd4SAAB/1KZ6c8AX1AQAAACsNwEAAADrTQAAAMB6EwAAALDeBAAAAKw3AQAAAOtNAAAAwHqXAAB4bWcdR9fmqL76yfed393d887qDQHw+1wCgOt3nmfwh+LoJWd1dE3uHfXd1bd097ytenMA/D6XAHg19zr69iffd/7t7pqz7+joXtflOI7gD8V59P8cXZ23Vm8NAF52CYBXM9Wfq76hu+boiepeAACscgmA1/LG6o0BAMACEwAAALDeBAAAAKw3AQAAAOtNAAAAwHoTAAAAsN4EAAAArDcBAAAA600AAADAehMAAACw3gQAAACsNwEAAADrTQAAAMB6EwAAALDeBAAAAKw3AQAAAOtNAAAAwHoTAAAAsN4EAAAArDcBAAAA600AAADAehMAAACw3gQAAACsNwEAAADrTQAAAMB6EwAAALDeBAAAAKw3AQAAAOtNAAAAwG5nDycAAABgu89MAAAAwG5Hn54AAACA1Y6zFyYAAABgtfPohQkAAADY7tMTAAAAsNpx9sIEAAAA7Hb06QkAAADY7eyFCQAAANjuhQkAAABY7axPTwAAAMB2L0wAAADAakd9egIAAABWO+uFCQAAANjt6PkJAAAAWO2oZycAAABgtfPsYxMAAACw29nHJgAAAGCzzxzTJy8BAAAAa531dPXiJQAAAGCto57t7OEEAAAAbPZMRw8nAAAAYLNnO3s0AQAAAHudPVM9vAQAAADsdfTsWQ8vAQAAAGudZ09XDycAAABgs2fPs4eXAAAAgLWOeqZ6OAEAAACbPXuvHk0AAADAXke/ezzqxQkAAADY6pNnffIDP32cEwAAALDVR496vpdMAAAAwFa/ddaneskEAAAArHTWb1fP95IJAAAAWOmoj1bP9ZIJAAAA2OqjPer5XjIBAAAAO5199N6jnuslEwAAALDRc2c986X3erGXTAAAAMBGHzvqmR996uj/mgAAAICNnj7r471sAgAAADZ65qhne9kEAAAAbPR09fFeNgEAAAAbPX2efbyXTQAAAMBGTx8Pe7aXTQAAAMA2z3f20cvDXuhlEwAAALDNx6pf/4mfPfr/JgAAAGCbp8/6jV5hAgAAALZ5uvpfvcIEAAAAbPP0oxf7jV5hAgAAADb5TGe/+eLzfbJXmAAAAIBNnjvr1/7Bvz/OXmECAAAANvlUR7/S55gAAACATT7Vo/5bn2MCAAAANvnU+bBf63NMAAAAwBaPzrPf+oqf6Zk+xwQAAABs8bCjX/7RjrPPMQEAAABbvNjZL/UqJgAAAGCLh2f9Qq9iAgAAALZ44Q31i72KCQAAANjh7Nc/8NTx272KCQAAAFjhrJ/pNUwAAADAFh/pNUwAAADABudZH+k1TAAAAMDVO+tXO/por+ESAAAAcPWOs48c9UKv4RIAAABw/Y5+7qwXew0TAAAAcO0+U/3Hy9mLvYYJAAAAuHb/86zf/MBTx9lrmAAAAIBr9586+0R/gAkAAAC4bmf/+Tj7RH+ASwAAAMA1e3j0f9qDl1jNz8Owz7/341+RI7uXwJIXWaRdJIsC2STZtoA2XXTVAkWXDVq0blpEWQQBYrRBYDl2m0BxFIlzhqRpWY5lx6I0iiy7tEmREnlmeJFsirRIURQpSiIl8Tq8DcmZ4VzO+d7EadPCjsTLcObMd855nqeH31unexOrAAAAgP3syVnP/NPjY92bWILD40L1VLXTZhnVX6x+MvazWb1cvdTm+anqLwbw5l6sXm7z/EfVB6pVAPw435mjk72FpREcFifn7Beqk22QUX++0T+o/kbsZxfn7PbqN9owY/SfV/8ggDcxZ7dUv92GGfVfNfqfq/cFwI8yq0dHPddbWJrVCA6DM2N0/Mid4/ttkL/zX8yfaulvxX63W313a3vc2ob5Ox+cP9kI4E2N2eNHjo9b2zAf+uD8S6N2A+DHea361nvf02u9hVUAAADAfvX9OXv8l28b697CKgAADr05AmB/enKue7y3YRUAAACwH12Y9e1mT/U2rAIAAAD2o+er+4/eNWZvwyoAAKgZAPvNyVFf721aBQDAoTcCYJ/ZrZ5sp+/1Nq0CAAAA9puz1X1H7hoXeptWAQAAAPvNmVn39g6sAgDg0JujGQD7ySstfa13YBUAAIfeDIB9ZM760tbt443egVUAABx6IwD2ldntvUOrAABg3QyA/eJM9ZXeoVUAAADAfvLVre3xYu/QKgAAAGA/+VyXYBUAAIfeGM0A2A9eq+7sEiwBAAAA+8Ps1urFLsEqAAAAYD/Yrb441p3uEqwCAAAA9oMfNHro2hPjQpdgCQCAQ2/WDICNNuvuOXu2S7QKAAAA2HTnq/t21r3QJVoFAMChN0YAbLbvVt/8lRNd6BKtAgCAmgGwyR4c6x6r0aVaBQAAAGyy09X9R473dO/CKgAAAGCTPdHsgRq9G6sAADj05roZAJtoXX1v1kO9S6sAAACATXV6zu7f2u6l3qVVAAAAwKZ6ofpSjd6tVQAAHHpjBMDmWc/61pw90GWwCgAAANhEb4zZvzx6fJzvMlgCAAAANs6cPXOhbu4yWQUAwKE3awbApjl24/Y43WWyCgCAQ28GwIY5O+ozXUarAAAAgE1z986673QZrQIA4NAboxkAG2HO5qzfuuaazncZrQIAAAA2xqhvjdl9c7TbZbQEh8c11V/40AfnmTbJ7H3Ve2K/G9X7PvTB+f42z38QwFv7yQ99cL6/zfNT1Qjg8JiNfmfOnjl6x+hyWuaoERwKPzPr56szbZJVS/WfxX73nuq/rH6mTTP6SwG8tf+6+ittmFF/uXpvAIfHyVl3XXi917vMljGrERwG/+Go/6YRXAnXjNFfrf5qAPvQqL/W6K8FwNV215g9duP9Y3aZrQIAAAA2welm96x3eqYrYBUAAACwCR5r9LWjd48LXQFLAAAAwNW2M2f37ez0QFfIKgAAAOBqe3LUzS+93NmukFUAAADA1bTb7MGLF7rz2COjK2UVAAAAcDWdqj53w73jbFfQKgAAAOBqenS12xe7wlYBAAAAV8t6zj798bvGK11hqwAAAICrYtbLXeym9sAqAAAA4OqY/cb77+ml9sAqAAAAYO/NXl7Pbvxwo72wCgAAANhzs25ajZ5rj6wCAAAA9trJ6ndbd7o9sgoAAADYW7NbRn1j68RYt0dWAQAAAHvpmVl/0G4n20OrAAAAgL1015jde+SusdseWgUAAADsladm3dzs6fbYKgAAAGAv7FZfHbvdeuTEmO2xVQAAAMBeeKHZzUdOjBe7ClYBAAAAV9q6erjRLV0lSwAAAMCV9sac/ebW9jjZVbIKAAAAuLJmj87ZF7qKVgEAAABX1uhjR4+P17qKlgAAAIArZs6+Vn2+q2wJAAAAuFLeGKOPVue7ypYAAACAK+WOWSe27hy7XWVLAAAAwJVwstmnVutOtgFWAQAAAFfC7dW9154YF9sAqwAAAIDL7ck5+91Rz7YhlgAAAIDL6eKsW8a6W689MXbbEKsAAACAy2VWj7TuXx45MV5vg6wCAAAALpezzW4e7+urbZglAAAA4HJ5bI4+uXXL2G3DLAEAAACXw3rOjm5tj++1gVYBAAAA79qc3TtHn21DrQIAAADerYur+vmjd47TbaglAAAA4N1Yz9mvzrqvDbYEAAAAvBvfa/apC6c73QZbBQAAAFyqc9VvterRG+8fsw22BAAAAFyqr83ZzVvbvdqGWwUAAABciheqz81136zRplsCAAAA3qndWXc3+uzRE+Nc+8AqAAAA4J16otnROXqufWIJAAAAeCfOzbppa3t8uX1kCQAAAHj7Zvev1n2sfWYVAAAA8Ha9Vv3StSfGS+0zqwAAAIC3619cU3e2D60CAAAA3o4HZn3i4uhC+9AqAAAA4K28MevoevTY0TvHbB9aBQAAALyZnVmfmrM/2Fl1oX1qCQAAAPhxZvVws5uObo/n2sdWAQAAAD/OqTm7aWfVV9rnVgEAAAA/yk6ze6rP3HDHON8+twoAAAD4UZ6rjmxtjyc7AFYBAAAAf9burOtGbXdALAHAPjfrP2n29z70wXkmuNxmPzHqrzcC4PCYs+46c6F//uv3jAsdEEsAsM+N+k8b/f0AAC6DOfvOrP/11+8Z5zpAlgAAAIB/56Ux+sVRT3TALAEAAAB/4nyzm2Z9cWt7XOiAWQIAAAD+xL1z9MmfeE8vdACtAgAAAJ5s9muzHv7l28bsAFoFAAAAh9sbzX73mvrC0TvHhQ6oVQAAAHB4refsxFz3S/9xnekAWwIAAIDD6/tz9ItHT4wXO+CWAAAA4HC60OzjR7fHPR0CqwAAAODwmc2Ordd9skNiCQAAAA6ZObu72Ueq0x0SqwAAAOBweWLUL8965OiJMTskVgEAAMDhcar657NuO3p87HSILAEAAMDhcKb65NztN7dOjHMdMqsAAADg4LtY3Tbruq0T41SH0BIAAAAcbLN6ZM4+urU9vtshtQoAAAAOttfn7JcuvN49HWKrAAAA4OCac/aRLvZ7N94/ZofYKgAAADi4PtfsE1v3jAsdcksAAABw8KyrP1qv+/D3X+75aBUAAAAcLLN6fNY/uvieHrv5GyNqFQAAABwsT1X/rNn2jV8au/FvrQIAAICD46VZ1zf73Nb2eCP+P0sAAABwMJybs9+a9Ymt7fFK/ClLAAAAcADM2e276/7x9SfGC/HvWQIAAID9bTb7452d/pcb7u75+JGWAAAAYP9az3p41t8c9VyN+NGWAAAAYH+ac/at6udmPXb93SN+vFUAAACwPz1RfWTU8eu2x068qVUAAACw/zxf3VD93pHt8Ua8pVUAAACwv5yds882+/Wt7XEq3pYlAAAA2D/Ws7441/3i1onxYrxtSwAAALA/7FR3zNnfvHim0/GOLAEAAMDmuzBn2+vR/3jd9jgd79gqAAAA2GwXmn1pzP7eNTs9G5dkFQAAAGyui822m/3CNeu+deSuMeOSrAIAAIDNtNvsnmb/aM4e+NhdYzcu2RIAAABsnjnroWb/+2r2tSMnxk68K0sAAACwYebsu2P0s7uzP946Mdbxri0BAADA5pizvjfqvz1y53goLptVAAAAsBlm9Ujr/tZ63TfisloFAAAAm+Ebc/YP56q7j54YMy6rJQAAALi6ZrOHq/+z+uLRO8f5uOyWAAAA4OqZc/atUT8/Z7dtHR9n44pYAgAAgKtl9sQc/d3WHd86Ps7HFbMEAAAAe29Wj1f/XfWNreNjxhW1BAAAAHtrt9mDY93/dO2J8VDsiVUAAACwdy7MOj5nf3vOHoo9swoAAAD2xoVmt4/Z/9Hsa0fuGuvYM0sAAABw5Z2vblvPfmHs9PWte8Zu7KklAAAAuLJ2qtua/f3di337hnvHOvbcEgAAAFw562ZfXF3Tz47dTh65d8y4KpYAAADgyjjT7A+uudj/8LHtcTauqlUAAABw+Z2cs19br/vbZ891Nq66JQAAALh8ZvXErBurTx49MV6IjbAEAAAAl8d61mNz9pHqC0e3x6nYGEsAAADw7s3qm81+btbx67bH2dgoSwAAAPDufWNd/307PXLd3WMnNs4SAAAAXLrzc/bl3frZ3Xr2xrvHjI20BAAAAJfmpeqm3dkvXX+852rE5loCAACAd2ZWTze7odknrj8+no+NtwQAAABv35z13eqjjW7a2h6vxL6wBAAAAG/fg81+Yay7/ciJcSb2jSUAAAB4e7446ud265vXnRg7sa8sAQAAwJs7W11Xffx9s6f/yfaYse8sAQAAwI+2U3232T8e6z577YnxRuxbSwAAAPDvO1fdNeujP/Hnuv2Xbxu7sa8tAQAAwJ92etZvjtkNW9vjoTgQlgAAAOD/91yzj6/W/dq1J8YLcWAsAQAAwP/j69VHZv3ekRPjTBwoSwAAABx2u83+oNH/NeqBn64LceAsAQAAcFitq+ebfXLMrp31wrXbY8aBtAQAAMBhdH7Wfc0+8v76/Q8fH+s40JYAAAA4bJ6Zdct63S9ed3x8Pw6FJQAAAA6Li9V9zT41d/rMzhudikNjCQAAgMPgVPU7s351VQ8cvXucj0NlCQAAgINsztkPR32k+vy8puev/fJYx6GzBAAAwEG12+yP5rr/bbXq0Wu3x/k4tJYAAAA4aHbn7Pnqxovv6Z/+yu3jbBx6SwAAABwkp+bsj2ZdO+tLv3L7OB/8G0sAAAAcBLvVY9Vn5uzTJ1/oO8ceGTP4fy0BAACw352b9Zlmv71ad/fRE+Ns8GcsAQAAsJ99c8625ujmo9s9VSP4UZYAAADYj85Un66un+se2d3pXI3gx1kCAABgPzk/66Ex+yfXXNOtu7M3jp4YM3gLSwAAAOwH6+oHc/a5dX30uu3xbPAOLAEAALDpTs36ylh3/fM/0+8fOzbWwTu0BAAAwKY6Xz1Ufb66aX1N3z92bMzgEiwBAACwaWazp+fo09UXRn19685xNngXlgAAANgYczYbfbbZDdU3xp/v5SO3jBm8S0sAAABsgvWsxxv9fPXFnYu9dsO9Yx1cJksAAABcTeeqJ2d9as5+9ej2eDG4ApYAAAC4GtbVE7Nurz5xevbH/2J7rIMrZAkAAIC99sqc3Tbq08tut3/srnE2uMKWAAAA2CtvVF+p/tVq9IVr7xzPBHtkCQAAgCvt4qyvj9lvVXdU3752e1wI9tASAAAAV87sB3N0baPfbfb0T9cbH94ewV5bAgAA4HLarc5WX2v2z2b94axTq/e2c+SWEVwtSwAAAFwOO9Xz1f1z3a+N2ZeOnBhngw2xBAAAwLsxq+/P2b1j9Dtzt9u3ToxXgw2zBAAAwKWY1Q+q7Tn7/WtGt3/8znEq2FBLAAAAvBOz2TPV/13duh59ddbJrTvHDDbYEgAAAG/LrGdHfXrObh71zbHTi0fvGetgH1gCAADgzayrp2b9xlj36616oZ3OHrlnrIN9ZAkAAIA/a6d6Zc4ebvSbY/T5rTvGq8E+tgQAAMC/c6F6YtYDzY5dM7rj43eOV4MDYAkAAIDXqkebfaW6eXenu6+/e5wLDpAlAACAw2ldPV3d3ewrc3Rfo69v3TnOBQfQEgAAwCEyZ7vVg42+UN3b7PHdnZ69/u5xMTjAlgAAAA6HV6o7qk9XD87Zcyc/0Oljx0ZwGCwBAAAcTDvVG82+V3161hfG6Aezzl+s9Y3bIzhMlgAAAA6OdfVa9Xyz+6rfPv96X77x/nEhOOSWAAAA9r/T1ZPV482+MuuWdT163fbYCfi3lgAAAPanC9UT1UPN7qseWNdDH9juhQ83Av60JQAAgP1jt3q6+kr11VkPj9m3n/tAPzx2bMyAH2sJAABgw806PWZ3zLq10QPVM7NOnnx/548dGwFvbQkAAGDzzOp89UD1+Tm6dcyem7PTJz/Q+WPHRsA7swQAAHB1ratz1ZnqtVn3Vl+ao+2TP90Pjx0bM+BdWwIAANh7O9WL1clmT836+hjdu7Pqnuu/PE4FXHZLAAAAe+Ns9VT1RLNvVw/O2YNj3WNbd43XA66oJQAAgCvnleqRWQ83+1b1+Jw9Pt7bE1u3jZ2APbMEAABw+Zxq9nijh+fs4erRMXpmrnt692Iv33Dv2A24KpYAAAAu0Zydqe6v7qvur7496pXq9Jy9fvR4b9QIuPqWAAAAfrzdarfaqXaqU3P2x2P01WZ/WD1cnW22s66dczvtfvKeEbB5lgAAAGpW56sz1dnqbPVa9cM5+1azR1f14Omdvv3Je8b5gH1nCQAAOGxm9Xr1SvVK9Ur18pw9NUbfWa/77qqemLMfbp0YZwIOhCUAAOCgOlO9Ur1cvVK9Ur0yZy81embMnp71zKynl9Gzf6HOffjOEXAwLQEAAPvX7Fyj56vnq5PVyWYnGz0/66VmrzZ6dcxeHfXqrNfGn+vVI7eNnYBDZQkAANg061lnq1PNXq1ONXp5zF6pXqtOVS81erY6WZ1pdnbW2ersavbGenZ2Pbp43fYI4E8ss54c9YcBAACXajbbnaOdanfUTnWx2q12Zu2M2mm2W+3M2ql2Rl2sTlcvzdFLc/bSqBdXq07Ndeeq3Wq32q12Z+2O2q12Z+3O0cVW7R798gjgrfxrFqVaVCWU1K8AAAAldEVYdGRhdGU6Y3JlYXRlADIwMjItMTItMDZUMDU6MzM6NTkrMDA6MDDSDN6HAAAAJXRFWHRkYXRlOm1vZGlmeQAyMDIyLTEyLTA2VDA1OjMzOjU5KzAwOjAwo1FmOwAAAABJRU5ErkJggg==;" vertex="1" parent="1">
          <mxGeometry x="835" y="480" width="62" height="62" as="geometry" />
        </mxCell>
        <mxCell id="u3GOakAXPToixl_BFqBM-21" value="Sidecars" style="text;html=1;align=center;verticalAlign=middle;whiteSpace=wrap;rounded=0;" vertex="1" parent="1">
          <mxGeometry x="917" y="400" width="60" height="30" as="geometry" />
        </mxCell>
      </root>
    </mxGraphModel>
  </diagram>
</mxfile>
